<?xml version="1.0" encoding="UTF-8"?>
<svg id="Rookey" xmlns="http://www.w3.org/2000/svg" width="99.35mm" height="100.39mm" viewBox="0 0 281.622 284.57">
  <defs>
    <style>
      .cls-1 {
        fill-rule: evenodd;
      }

      .cls-1, .cls-2 {
        fill: none;
        stroke: #000;
        stroke-linecap: round;
        stroke-linejoin: round;
        stroke-width: .283px;
      }
    </style>
  </defs>
  <g id="Rookey-2" data-name="Rookey">
    <g>
      <path class="cls-2" d="M68.811,17.901v3.6"/>
      <path class="cls-2" d="M104.811,17.901h-3.6"/>
      <path class="cls-2" d="M104.811,21.501v-3.6"/>
      <path class="cls-2" d="M104.811,53.901v-3.6"/>
      <path class="cls-2" d="M72.411,17.901h-3.6"/>
      <path class="cls-2" d="M101.211,53.901h3.6"/>
      <path class="cls-2" d="M68.811,53.901h3.6"/>
      <path class="cls-2" d="M68.811,50.301v3.6"/>
      <path class="cls-2" d="M158.811,75.501v-3.6"/>
      <path class="cls-2" d="M122.811,71.901v3.6"/>
      <path class="cls-2" d="M122.811,107.901h3.6"/>
      <path class="cls-2" d="M158.811,71.901h-3.6"/>
      <path class="cls-2" d="M155.211,107.901h3.6"/>
      <path class="cls-2" d="M122.811,104.301v3.6"/>
      <path class="cls-2" d="M126.411,71.901h-3.6"/>
      <path class="cls-2" d="M158.811,107.901v-3.6"/>
      <path class="cls-2" d="M14.811,53.901h3.6"/>
      <path class="cls-2" d="M50.811,17.901h-3.6"/>
      <path class="cls-2" d="M50.811,21.501v-3.6"/>
      <path class="cls-2" d="M14.811,17.901v3.6"/>
      <path class="cls-2" d="M18.411,17.901h-3.6"/>
      <path class="cls-2" d="M47.211,53.901h3.6"/>
      <path class="cls-2" d="M50.811,53.901v-3.6"/>
      <path class="cls-2" d="M14.811,50.301v3.6"/>
      <path class="cls-2" d="M202.677,139.578v-17.008"/>
      <path class="cls-2" d="M202.677,122.57h.709"/>
      <path class="cls-2" d="M211.89,122.57h.709"/>
      <path class="cls-2" d="M212.598,139.578h-.709"/>
      <path class="cls-2" d="M203.386,139.578h-.709"/>
      <path class="cls-2" d="M212.598,122.57v17.008"/>
      <path class="cls-2" d="M176.811,107.901h3.6"/>
      <path class="cls-2" d="M212.811,75.501v-3.6"/>
      <path class="cls-2" d="M212.811,107.901v-3.6"/>
      <path class="cls-2" d="M176.811,71.901v3.6"/>
      <path class="cls-2" d="M180.411,71.901h-3.6"/>
      <path class="cls-2" d="M176.811,104.301v3.6"/>
      <path class="cls-2" d="M212.811,71.901h-3.6"/>
      <path class="cls-2" d="M209.211,107.901h3.6"/>
      <path class="cls-2" d="M104.811,107.901v-3.6"/>
      <path class="cls-2" d="M68.811,107.901h3.6"/>
      <path class="cls-2" d="M68.811,104.301v3.6"/>
      <path class="cls-2" d="M68.811,71.901v3.6"/>
      <path class="cls-2" d="M104.811,71.901h-3.6"/>
      <path class="cls-2" d="M101.211,107.901h3.6"/>
      <path class="cls-2" d="M72.411,71.901h-3.6"/>
      <path class="cls-2" d="M104.811,75.501v-3.6"/>
      <path class="cls-2" d="M122.811,17.901v3.6"/>
      <path class="cls-2" d="M126.411,17.901h-3.6"/>
      <path class="cls-2" d="M122.811,50.301v3.6"/>
      <path class="cls-2" d="M122.811,53.901h3.6"/>
      <path class="cls-2" d="M155.211,53.901h3.6"/>
      <path class="cls-2" d="M158.811,17.901h-3.6"/>
      <path class="cls-2" d="M158.811,53.901v-3.6"/>
      <path class="cls-2" d="M158.811,21.501v-3.6"/>
      <path class="cls-2" d="M176.811,17.901v3.6"/>
      <path class="cls-2" d="M176.811,53.901h3.6"/>
      <path class="cls-2" d="M212.811,21.501v-3.6"/>
      <path class="cls-2" d="M212.811,53.901v-3.6"/>
      <path class="cls-2" d="M176.811,50.301v3.6"/>
      <path class="cls-2" d="M180.411,17.901h-3.6"/>
      <path class="cls-2" d="M209.211,53.901h3.6"/>
      <path class="cls-2" d="M212.811,17.901h-3.6"/>
      <path class="cls-2" d="M230.797,140.854v3.6"/>
      <path class="cls-2" d="M234.397,108.454h-3.6"/>
      <path class="cls-2" d="M230.797,144.454h3.6"/>
      <path class="cls-2" d="M230.797,108.454v3.6"/>
      <path class="cls-2" d="M266.797,144.454v-3.6"/>
      <path class="cls-2" d="M266.797,108.454h-3.6"/>
      <path class="cls-2" d="M263.197,144.454h3.6"/>
      <path class="cls-2" d="M266.797,112.054v-3.6"/>
      <path class="cls-2" d="M50.811,75.501v-3.6"/>
      <path class="cls-2" d="M14.811,71.901v3.6"/>
      <path class="cls-2" d="M14.811,107.901h3.6"/>
      <path class="cls-2" d="M47.211,107.901h3.6"/>
      <path class="cls-2" d="M50.811,71.901h-3.6"/>
      <path class="cls-2" d="M14.811,104.301v3.6"/>
      <path class="cls-2" d="M18.411,71.901h-3.6"/>
      <path class="cls-2" d="M50.811,107.901v-3.6"/>
      <circle class="cls-2" cx="270.387" cy="14.661" r="2.16"/>
      <circle class="cls-2" cx="270.387" cy="21.861" r="2.16"/>
      <circle class="cls-2" cx="270.387" cy="29.061" r="2.16"/>
      <circle class="cls-2" cx="270.387" cy="36.261" r="2.16"/>
      <circle class="cls-2" cx="270.387" cy="43.461" r="2.16"/>
      <circle class="cls-2" cx="270.387" cy="50.661" r="2.16"/>
      <circle class="cls-2" cx="270.387" cy="57.861" r="2.16"/>
      <circle class="cls-2" cx="270.387" cy="65.061" r="2.16"/>
      <circle class="cls-2" cx="270.387" cy="72.261" r="2.16"/>
      <circle class="cls-2" cx="270.387" cy="79.461" r="2.16"/>
      <circle class="cls-2" cx="270.387" cy="86.661" r="2.16"/>
      <circle class="cls-2" cx="270.387" cy="93.861" r="2.16"/>
      <circle class="cls-2" cx="227.243" cy="93.861" r="2.16"/>
      <circle class="cls-2" cx="227.243" cy="86.661" r="2.16"/>
      <circle class="cls-2" cx="227.243" cy="79.461" r="2.16"/>
      <circle class="cls-2" cx="227.243" cy="72.261" r="2.16"/>
      <circle class="cls-2" cx="227.243" cy="65.061" r="2.16"/>
      <circle class="cls-2" cx="227.243" cy="57.861" r="2.16"/>
      <circle class="cls-2" cx="227.243" cy="50.661" r="2.16"/>
      <circle class="cls-2" cx="227.243" cy="43.461" r="2.16"/>
      <circle class="cls-2" cx="227.243" cy="36.261" r="2.16"/>
      <circle class="cls-2" cx="227.243" cy="29.061" r="2.16"/>
      <circle class="cls-2" cx="227.243" cy="21.861" r="2.16"/>
      <circle class="cls-2" cx="227.243" cy="14.661" r="2.16"/>
    </g>
    <g>
      <circle class="cls-2" cx="72.411" cy="35.901" r="2.837"/>
      <circle class="cls-2" cx="101.211" cy="35.901" r="2.837"/>
      <circle class="cls-2" cx="86.811" cy="35.901" r="5.956"/>
      <circle class="cls-2" cx="76.011" cy="28.701" r="3.385"/>
      <circle class="cls-2" cx="94.011" cy="21.501" r="3.385"/>
      <circle class="cls-2" cx="153.213" cy="165.09" r=".57"/>
      <circle class="cls-2" cx="150.378" cy="165.09" r=".57"/>
      <circle class="cls-2" cx="151.795" cy="122.57" r=".57"/>
      <circle class="cls-2" cx="157.465" cy="165.09" r=".57"/>
      <circle class="cls-2" cx="154.63" cy="122.57" r=".57"/>
      <circle class="cls-2" cx="150.378" cy="122.57" r=".57"/>
      <circle class="cls-2" cx="157.465" cy="122.57" r=".57"/>
      <circle class="cls-2" cx="153.213" cy="122.57" r=".57"/>
      <circle class="cls-2" cx="156.047" cy="122.57" r=".57"/>
      <circle class="cls-2" cx="158.882" cy="165.09" r=".57"/>
      <circle class="cls-2" cx="154.63" cy="165.09" r=".57"/>
      <circle class="cls-2" cx="151.795" cy="165.09" r=".57"/>
      <circle class="cls-2" cx="158.882" cy="122.57" r=".57"/>
      <circle class="cls-2" cx="156.047" cy="165.09" r=".57"/>
      <circle class="cls-2" cx="154.63" cy="122.57" r=".57"/>
      <circle class="cls-2" cx="270.387" cy="14.661" r="2.305"/>
      <circle class="cls-2" cx="270.387" cy="21.861" r="2.305"/>
      <circle class="cls-2" cx="270.387" cy="29.061" r="2.305"/>
      <circle class="cls-2" cx="270.387" cy="36.261" r="2.305"/>
      <circle class="cls-2" cx="270.387" cy="43.461" r="2.305"/>
      <circle class="cls-2" cx="270.387" cy="50.661" r="2.305"/>
      <circle class="cls-2" cx="270.387" cy="57.861" r="2.305"/>
      <circle class="cls-2" cx="270.387" cy="65.061" r="2.305"/>
      <circle class="cls-2" cx="270.387" cy="72.261" r="2.305"/>
      <circle class="cls-2" cx="270.387" cy="79.461" r="2.305"/>
      <circle class="cls-2" cx="270.387" cy="86.661" r="2.305"/>
      <circle class="cls-2" cx="270.387" cy="93.861" r="2.305"/>
      <circle class="cls-2" cx="227.243" cy="93.861" r="2.305"/>
      <circle class="cls-2" cx="227.243" cy="86.661" r="2.305"/>
      <circle class="cls-2" cx="227.243" cy="79.461" r="2.305"/>
      <circle class="cls-2" cx="227.243" cy="72.261" r="2.305"/>
      <circle class="cls-2" cx="227.243" cy="65.061" r="2.305"/>
      <circle class="cls-2" cx="227.243" cy="57.861" r="2.305"/>
      <circle class="cls-2" cx="227.243" cy="50.661" r="2.305"/>
      <circle class="cls-2" cx="227.243" cy="43.461" r="2.305"/>
      <circle class="cls-2" cx="227.243" cy="36.261" r="2.305"/>
      <circle class="cls-2" cx="227.243" cy="29.061" r="2.305"/>
      <circle class="cls-2" cx="227.243" cy="21.861" r="2.305"/>
      <circle class="cls-2" cx="227.243" cy="14.661" r="2.305"/>
      <circle class="cls-2" cx="155.211" cy="89.901" r="2.837"/>
      <circle class="cls-2" cx="140.811" cy="89.901" r="5.956"/>
      <circle class="cls-2" cx="126.411" cy="89.901" r="2.837"/>
      <circle class="cls-2" cx="130.011" cy="82.701" r="3.385"/>
      <circle class="cls-2" cx="148.011" cy="75.501" r="3.385"/>
      <circle class="cls-2" cx="180.142" cy="165.09" r=".57"/>
      <circle class="cls-2" cx="182.976" cy="122.57" r=".57"/>
      <circle class="cls-2" cx="185.811" cy="165.09" r=".57"/>
      <circle class="cls-2" cx="185.811" cy="122.57" r=".57"/>
      <circle class="cls-2" cx="184.394" cy="165.09" r=".57"/>
      <circle class="cls-2" cx="180.142" cy="122.57" r=".57"/>
      <circle class="cls-2" cx="178.724" cy="122.57" r=".57"/>
      <circle class="cls-2" cx="187.228" cy="165.09" r=".57"/>
      <circle class="cls-2" cx="181.559" cy="165.09" r=".57"/>
      <circle class="cls-2" cx="184.394" cy="122.57" r=".57"/>
      <circle class="cls-2" cx="178.724" cy="165.09" r=".57"/>
      <circle class="cls-2" cx="182.976" cy="165.09" r=".57"/>
      <circle class="cls-2" cx="182.976" cy="122.57" r=".57"/>
      <circle class="cls-2" cx="187.228" cy="122.57" r=".57"/>
      <circle class="cls-2" cx="181.559" cy="122.57" r=".57"/>
      <circle class="cls-2" cx="32.811" cy="35.901" r="5.956"/>
      <circle class="cls-2" cx="47.211" cy="35.901" r="2.837"/>
      <circle class="cls-2" cx="18.411" cy="35.901" r="2.837"/>
      <circle class="cls-2" cx="22.011" cy="28.701" r="3.385"/>
      <circle class="cls-2" cx="40.011" cy="21.501" r="3.385"/>
      <circle class="cls-2" cx="207.638" cy="121.861" r="2.979"/>
      <circle class="cls-2" cx="207.638" cy="140.287" r="2.979"/>
      <circle class="cls-2" cx="209.211" cy="89.901" r="2.837"/>
      <circle class="cls-2" cx="180.411" cy="89.901" r="2.837"/>
      <circle class="cls-2" cx="194.811" cy="89.901" r="5.956"/>
      <circle class="cls-2" cx="184.011" cy="82.701" r="3.385"/>
      <circle class="cls-2" cx="202.011" cy="75.501" r="3.385"/>
      <circle class="cls-2" cx="95.102" cy="122.57" r=".57"/>
      <circle class="cls-2" cx="100.772" cy="165.09" r=".57"/>
      <circle class="cls-2" cx="99.354" cy="165.09" r=".57"/>
      <circle class="cls-2" cx="93.685" cy="165.09" r=".57"/>
      <circle class="cls-2" cx="102.189" cy="122.57" r=".57"/>
      <circle class="cls-2" cx="100.772" cy="122.57" r=".57"/>
      <circle class="cls-2" cx="97.937" cy="122.57" r=".57"/>
      <circle class="cls-2" cx="97.937" cy="165.09" r=".57"/>
      <circle class="cls-2" cx="96.52" cy="122.57" r=".57"/>
      <circle class="cls-2" cx="102.189" cy="165.09" r=".57"/>
      <circle class="cls-2" cx="99.354" cy="122.57" r=".57"/>
      <circle class="cls-2" cx="95.102" cy="165.09" r=".57"/>
      <circle class="cls-2" cx="93.685" cy="122.57" r=".57"/>
      <circle class="cls-2" cx="97.937" cy="122.57" r=".57"/>
      <circle class="cls-2" cx="96.52" cy="165.09" r=".57"/>
      <circle class="cls-2" cx="86.811" cy="89.901" r="5.956"/>
      <circle class="cls-2" cx="101.211" cy="89.901" r="2.837"/>
      <circle class="cls-2" cx="72.411" cy="89.901" r="2.837"/>
      <circle class="cls-2" cx="76.011" cy="82.701" r="3.385"/>
      <circle class="cls-2" cx="94.011" cy="75.501" r="3.385"/>
      <circle class="cls-2" cx="126.283" cy="122.57" r=".57"/>
      <circle class="cls-2" cx="129.118" cy="122.57" r=".57"/>
      <circle class="cls-2" cx="126.283" cy="165.09" r=".57"/>
      <circle class="cls-2" cx="129.118" cy="165.09" r=".57"/>
      <circle class="cls-2" cx="124.866" cy="122.57" r=".57"/>
      <circle class="cls-2" cx="130.535" cy="165.09" r=".57"/>
      <circle class="cls-2" cx="123.449" cy="122.57" r=".57"/>
      <circle class="cls-2" cx="127.701" cy="165.09" r=".57"/>
      <circle class="cls-2" cx="122.031" cy="165.09" r=".57"/>
      <circle class="cls-2" cx="127.701" cy="122.57" r=".57"/>
      <circle class="cls-2" cx="122.031" cy="122.57" r=".57"/>
      <circle class="cls-2" cx="130.535" cy="122.57" r=".57"/>
      <circle class="cls-2" cx="126.283" cy="122.57" r=".57"/>
      <circle class="cls-2" cx="124.866" cy="165.09" r=".57"/>
      <circle class="cls-2" cx="123.449" cy="165.09" r=".57"/>
      <circle class="cls-2" cx="140.811" cy="35.901" r="5.956"/>
      <circle class="cls-2" cx="126.411" cy="35.901" r="2.837"/>
      <circle class="cls-2" cx="155.211" cy="35.901" r="2.837"/>
      <circle class="cls-2" cx="130.011" cy="28.701" r="3.385"/>
      <circle class="cls-2" cx="148.011" cy="21.501" r="3.385"/>
      <circle class="cls-2" cx="180.411" cy="35.901" r="2.837"/>
      <circle class="cls-2" cx="209.211" cy="35.901" r="2.837"/>
      <circle class="cls-2" cx="194.811" cy="35.901" r="5.956"/>
      <circle class="cls-2" cx="184.011" cy="28.701" r="3.385"/>
      <circle class="cls-2" cx="202.011" cy="21.501" r="3.385"/>
      <circle class="cls-2" cx="248.797" cy="126.454" r="5.956"/>
      <circle class="cls-2" cx="234.397" cy="126.454" r="2.837"/>
      <circle class="cls-2" cx="263.197" cy="126.454" r="2.837"/>
      <g>
        <path class="cls-1" d="M224.558,116.532l.011-.055.031-.047.047-.031.055-.011h5.669l.055.011.047.031.031.047.011.055v5.669l-.011.055-.031.047-.047.031-.055.011h-5.669l-.055-.011-.047-.031-.031-.047-.011-.055v-5.669Z"/>
        <circle class="cls-2" cx="227.537" cy="133.54" r="2.979"/>
      </g>
      <circle class="cls-2" cx="227.537" cy="126.454" r="2.979"/>
      <circle class="cls-2" cx="268.639" cy="133.54" r="2.979"/>
      <circle class="cls-2" cx="237.997" cy="119.254" r="3.385"/>
      <circle class="cls-2" cx="255.997" cy="112.054" r="3.385"/>
      <circle class="cls-2" cx="268.639" cy="119.367" r="2.979"/>
      <circle class="cls-2" cx="47.211" cy="89.901" r="2.837"/>
      <circle class="cls-2" cx="32.811" cy="89.901" r="5.956"/>
      <circle class="cls-2" cx="18.411" cy="89.901" r="2.837"/>
      <circle class="cls-2" cx="22.011" cy="82.701" r="3.385"/>
      <circle class="cls-2" cx="40.011" cy="75.501" r="3.385"/>
    </g>
    <g>
      <path class="cls-1" d="M98.367,164.718l.049.041.005-.006.005-.002h.003s.056.055.056.055l.193.037.183-.073.008-.009h.004s.051-.044.051-.044h.006s.004.003.004.003v.004s-.1.149-.1.149l-.043.216.043.216.099.149v.006s-.004.003-.004.003h-.004s-.049-.043-.049-.043l-.005.006-.005.002h-.003s-.056-.055-.056-.055l-.193-.037-.183.073-.008.009h-.004s-.051.044-.051.044h-.006s-.004-.003-.004-.003v-.004s.1-.149.1-.149l.043-.216-.043-.216-.099-.149v-.006s.004-.003.004-.003h.004Z"/>
      <path class="cls-1" d="M179.155,164.718l.049.041.005-.006.005-.002h.003s.056.055.056.055l.193.037.183-.073.008-.009h.004s.051-.044.051-.044h.006s.004.003.004.003v.004s-.1.149-.1.149l-.043.216.043.216.099.149v.006s-.004.003-.004.003h-.004s-.049-.043-.049-.043l-.005.006-.005.002h-.003s-.056-.055-.056-.055l-.193-.037-.183.073-.008.009h-.004s-.051.044-.051.044h-.006s-.004-.003-.004-.003v-.004s.1-.149.1-.149l.043-.216-.043-.216-.099-.149v-.006s.004-.003.004-.003h.004Z"/>
      <path class="cls-1" d="M155.06,164.718l.049.041.005-.006.005-.002h.003s.056.055.056.055l.193.037.183-.073.008-.009h.004s.051-.044.051-.044h.006s.004.003.004.003v.004s-.1.149-.1.149l-.043.216.043.216.099.149v.006s-.004.003-.004.003h-.004s-.049-.043-.049-.043l-.005.006-.005.002h-.003s-.056-.055-.056-.055l-.193-.037-.183.073-.008.009h-.004s-.051.044-.051.044h-.006s-.004-.003-.004-.003v-.004s.1-.149.1-.149l.043-.216-.043-.216-.099-.149v-.006s.004-.003.004-.003h.004Z"/>
      <path class="cls-1" d="M94.115,164.718l.049.041.005-.006.005-.002h.003s.056.055.056.055l.193.037.183-.073.008-.009h.004s.051-.044.051-.044h.006s.004.003.004.003v.004s-.1.149-.1.149l-.043.216.043.216.099.149v.006s-.004.003-.004.003h-.004s-.049-.043-.049-.043l-.005.006-.005.002h-.003s-.056-.055-.056-.055l-.193-.037-.183.073-.008.009h-.004s-.051.044-.051.044h-.006s-.004-.003-.004-.003v-.004s.1-.149.1-.149l.043-.216-.043-.216-.099-.149v-.006s.004-.003.004-.003h.004Z"/>
      <path class="cls-1" d="M153.643,164.718l.049.041.005-.006.005-.002h.003s.056.055.056.055l.193.037.183-.073.008-.009h.004s.051-.044.051-.044h.006s.004.003.004.003v.004s-.1.149-.1.149l-.043.216.043.216.099.149v.006s-.004.003-.004.003h-.004s-.049-.043-.049-.043l-.005.006-.005.002h-.003s-.056-.055-.056-.055l-.193-.037-.183.073-.008.009h-.004s-.051.044-.051.044h-.006s-.004-.003-.004-.003v-.004s.1-.149.1-.149l.043-.216-.043-.216-.099-.149v-.006s.004-.003.004-.003h.004Z"/>
      <path class="cls-1" d="M99.784,164.718l.049.041.005-.006.005-.002h.003s.056.055.056.055l.193.037.183-.073.008-.009h.004s.051-.044.051-.044h.006s.004.003.004.003v.004s-.1.149-.1.149l-.043.216.043.216.099.149v.006s-.004.003-.004.003h-.004s-.049-.043-.049-.043l-.005.006-.005.002h-.003s-.056-.055-.056-.055l-.193-.037-.183.073-.008.009h-.004s-.051.044-.051.044h-.006s-.004-.003-.004-.003v-.004s.1-.149.1-.149l.043-.216-.043-.216-.099-.149v-.006s.004-.003.004-.003h.004Z"/>
      <path class="cls-1" d="M101.202,164.718l.049.041.005-.006.005-.002h.003s.056.055.056.055l.193.037.183-.073.008-.009h.004s.051-.044.051-.044h.006s.004.003.004.003v.004s-.1.149-.1.149l-.043.216.043.216.099.149v.006s-.004.003-.004.003h-.004s-.049-.043-.049-.043l-.005.006-.005.002h-.003s-.056-.055-.056-.055l-.193-.037-.183.073-.008.009h-.004s-.051.044-.051.044h-.006s-.004-.003-.004-.003v-.004s.1-.149.1-.149l.043-.216-.043-.216-.099-.149v-.006s.004-.003.004-.003h.004Z"/>
      <path class="cls-1" d="M128.131,164.718l.049.041.005-.006.005-.002h.003s.056.055.056.055l.193.037.183-.073.008-.009h.004s.051-.044.051-.044h.006s.004.003.004.003v.004s-.1.149-.1.149l-.043.216.043.216.099.149v.006s-.004.003-.004.003h-.004s-.049-.043-.049-.043l-.005.006-.005.002h-.003s-.056-.055-.056-.055l-.193-.037-.183.073-.008.009h-.004s-.051.044-.051.044h-.006s-.004-.003-.004-.003v-.004s.1-.149.1-.149l.043-.216-.043-.216-.099-.149v-.006s.004-.003.004-.003h.004Z"/>
      <path class="cls-1" d="M122.462,164.718l.049.041.005-.006.005-.002h.003s.056.055.056.055l.193.037.183-.073.008-.009h.004s.051-.044.051-.044h.006s.004.003.004.003v.004s-.1.149-.1.149l-.043.216.043.216.099.149v.006s-.004.003-.004.003h-.004s-.049-.043-.049-.043l-.005.006-.005.002h-.003s-.056-.055-.056-.055l-.193-.037-.183.073-.008.009h-.004s-.051.044-.051.044h-.006s-.004-.003-.004-.003v-.004s.1-.149.1-.149l.043-.216-.043-.216-.099-.149v-.006s.004-.003.004-.003h.004Z"/>
      <path class="cls-1" d="M186.241,164.718l.049.041.005-.006.005-.002h.003s.056.055.056.055l.193.037.183-.073.008-.009h.004s.051-.044.051-.044h.006s.004.003.004.003v.004s-.1.149-.1.149l-.043.216.043.216.099.149v.006s-.004.003-.004.003h-.004s-.049-.043-.049-.043l-.005.006-.005.002h-.003s-.056-.055-.056-.055l-.193-.037-.183.073-.008.009h-.004s-.051.044-.051.044h-.006s-.004-.003-.004-.003v-.004s.1-.149.1-.149l.043-.216-.043-.216-.099-.149v-.006s.004-.003.004-.003h.004Z"/>
      <path class="cls-1" d="M125.296,164.718l.049.041.005-.006.005-.002h.003s.056.055.056.055l.193.037.183-.073.008-.009h.004s.051-.044.051-.044h.006s.004.003.004.003v.004s-.1.149-.1.149l-.043.216.043.216.099.149v.006s-.004.003-.004.003h-.004s-.049-.043-.049-.043l-.005.006-.005.002h-.003s-.056-.055-.056-.055l-.193-.037-.183.073-.008.009h-.004s-.051.044-.051.044h-.006s-.004-.003-.004-.003v-.004s.1-.149.1-.149l.043-.216-.043-.216-.099-.149v-.006s.004-.003.004-.003h.004Z"/>
      <path class="cls-1" d="M183.406,164.718l.049.041.005-.006.005-.002h.003s.056.055.056.055l.193.037.183-.073.008-.009h.004s.051-.044.051-.044h.006s.004.003.004.003v.004s-.1.149-.1.149l-.043.216.043.216.099.149v.006s-.004.003-.004.003h-.004s-.049-.043-.049-.043l-.005.006-.005.002h-.003s-.056-.055-.056-.055l-.193-.037-.183.073-.008.009h-.004s-.051.044-.051.044h-.006s-.004-.003-.004-.003v-.004s.1-.149.1-.149l.043-.216-.043-.216-.099-.149v-.006s.004-.003.004-.003h.004Z"/>
      <path class="cls-1" d="M95.532,164.718l.049.041.005-.006.005-.002h.003s.056.055.056.055l.193.037.183-.073.008-.009h.004s.051-.044.051-.044h.006s.004.003.004.003v.004s-.1.149-.1.149l-.043.216.043.216.099.149v.006s-.004.003-.004.003h-.004s-.049-.043-.049-.043l-.005.006-.005.002h-.003s-.056-.055-.056-.055l-.193-.037-.183.073-.008.009h-.004s-.051.044-.051.044h-.006s-.004-.003-.004-.003v-.004s.1-.149.1-.149l.043-.216-.043-.216-.099-.149v-.006s.004-.003.004-.003h.004Z"/>
      <path class="cls-1" d="M152.225,164.718l.049.041.005-.006.005-.002h.003s.056.055.056.055l.193.037.183-.073.008-.009h.004s.051-.044.051-.044h.006s.004.003.004.003v.004s-.1.149-.1.149l-.043.216.043.216.099.149v.006s-.004.003-.004.003h-.004s-.049-.043-.049-.043l-.005.006-.005.002h-.003s-.056-.055-.056-.055l-.193-.037-.183.073-.008.009h-.004s-.051.044-.051.044h-.006s-.004-.003-.004-.003v-.004s.1-.149.1-.149l.043-.216-.043-.216-.099-.149v-.006s.004-.003.004-.003h.004Z"/>
      <path class="cls-1" d="M129.548,164.718l.049.041.005-.006.005-.002h.003s.056.055.056.055l.193.037.183-.073.008-.009h.004s.051-.044.051-.044h.006s.004.003.004.003v.004s-.1.149-.1.149l-.043.216.043.216.099.149v.006s-.004.003-.004.003h-.004s-.049-.043-.049-.043l-.005.006-.005.002h-.003s-.056-.055-.056-.055l-.193-.037-.183.073-.008.009h-.004s-.051.044-.051.044h-.006s-.004-.003-.004-.003v-.004s.1-.149.1-.149l.043-.216-.043-.216-.099-.149v-.006s.004-.003.004-.003h.004Z"/>
      <path class="cls-1" d="M96.95,164.718l.049.041.005-.006.005-.002h.003s.056.055.056.055l.193.037.183-.073.008-.009h.004s.051-.044.051-.044h.006s.004.003.004.003v.004s-.1.149-.1.149l-.043.216.043.216.099.149v.006s-.004.003-.004.003h-.004s-.049-.043-.049-.043l-.005.006-.005.002h-.003s-.056-.055-.056-.055l-.193-.037-.183.073-.008.009h-.004s-.051.044-.051.044h-.006s-.004-.003-.004-.003v-.004s.1-.149.1-.149l.043-.216-.043-.216-.099-.149v-.006s.004-.003.004-.003h.004Z"/>
      <path class="cls-1" d="M156.477,164.718l.049.041.005-.006.005-.002h.003s.056.055.056.055l.193.037.183-.073.008-.009h.004s.051-.044.051-.044h.006s.004.003.004.003v.004s-.1.149-.1.149l-.043.216.043.216.099.149v.006s-.004.003-.004.003h-.004s-.049-.043-.049-.043l-.005.006-.005.002h-.003s-.056-.055-.056-.055l-.193-.037-.183.073-.008.009h-.004s-.051.044-.051.044h-.006s-.004-.003-.004-.003v-.004s.1-.149.1-.149l.043-.216-.043-.216-.099-.149v-.006s.004-.003.004-.003h.004Z"/>
      <path class="cls-1" d="M123.879,164.718l.049.041.005-.006.005-.002h.003s.056.055.056.055l.193.037.183-.073.008-.009h.004s.051-.044.051-.044h.006s.004.003.004.003v.004s-.1.149-.1.149l-.043.216.043.216.099.149v.006s-.004.003-.004.003h-.004s-.049-.043-.049-.043l-.005.006-.005.002h-.003s-.056-.055-.056-.055l-.193-.037-.183.073-.008.009h-.004s-.051.044-.051.044h-.006s-.004-.003-.004-.003v-.004s.1-.149.1-.149l.043-.216-.043-.216-.099-.149v-.006s.004-.003.004-.003h.004Z"/>
      <path class="cls-1" d="M180.572,164.718l.049.041.005-.006.005-.002h.003s.056.055.056.055l.193.037.183-.073.008-.009h.004s.051-.044.051-.044h.006s.004.003.004.003v.004s-.1.149-.1.149l-.043.216.043.216.099.149v.006s-.004.003-.004.003h-.004s-.049-.043-.049-.043l-.005.006-.005.002h-.003s-.056-.055-.056-.055l-.193-.037-.183.073-.008.009h-.004s-.051.044-.051.044h-.006s-.004-.003-.004-.003v-.004s.1-.149.1-.149l.043-.216-.043-.216-.099-.149v-.006s.004-.003.004-.003h.004Z"/>
      <path class="cls-1" d="M181.989,164.718l.049.041.005-.006.005-.002h.003s.056.055.056.055l.193.037.183-.073.008-.009h.004s.051-.044.051-.044h.006s.004.003.004.003v.004s-.1.149-.1.149l-.043.216.043.216.099.149v.006s-.004.003-.004.003h-.004s-.049-.043-.049-.043l-.005.006-.005.002h-.003s-.056-.055-.056-.055l-.193-.037-.183.073-.008.009h-.004s-.051.044-.051.044h-.006s-.004-.003-.004-.003v-.004s.1-.149.1-.149l.043-.216-.043-.216-.099-.149v-.006s.004-.003.004-.003h.004Z"/>
      <path class="cls-1" d="M157.895,164.718l.049.041.005-.006.005-.002h.003s.056.055.056.055l.193.037.183-.073.008-.009h.004s.051-.044.051-.044h.006s.004.003.004.003v.004s-.1.149-.1.149l-.043.216.043.216.099.149v.006s-.004.003-.004.003h-.004s-.049-.043-.049-.043l-.005.006-.005.002h-.003s-.056-.055-.056-.055l-.193-.037-.183.073-.008.009h-.004s-.051.044-.051.044h-.006s-.004-.003-.004-.003v-.004s.1-.149.1-.149l.043-.216-.043-.216-.099-.149v-.006s.004-.003.004-.003h.004Z"/>
      <path class="cls-1" d="M126.714,164.718l.049.041.005-.006.005-.002h.003s.056.055.056.055l.193.037.183-.073.008-.009h.004s.051-.044.051-.044h.006s.004.003.004.003v.004s-.1.149-.1.149l-.043.216.043.216.099.149v.006s-.004.003-.004.003h-.004s-.049-.043-.049-.043l-.005.006-.005.002h-.003s-.056-.055-.056-.055l-.193-.037-.183.073-.008.009h-.004s-.051.044-.051.044h-.006s-.004-.003-.004-.003v-.004s.1-.149.1-.149l.043-.216-.043-.216-.099-.149v-.006s.004-.003.004-.003h.004Z"/>
      <path class="cls-1" d="M150.808,164.718l.049.041.005-.006.005-.002h.003s.056.055.056.055l.193.037.183-.073.008-.009h.004s.051-.044.051-.044h.006s.004.003.004.003v.004s-.1.149-.1.149l-.043.216.043.216.099.149v.006s-.004.003-.004.003h-.004s-.049-.043-.049-.043l-.005.006-.005.002h-.003s-.056-.055-.056-.055l-.193-.037-.183.073-.008.009h-.004s-.051.044-.051.044h-.006s-.004-.003-.004-.003v-.004s.1-.149.1-.149l.043-.216-.043-.216-.099-.149v-.006s.004-.003.004-.003h.004Z"/>
      <path class="cls-1" d="M184.824,164.718l.049.041.005-.006.005-.002h.003s.056.055.056.055l.193.037.183-.073.008-.009h.004s.051-.044.051-.044h.006s.004.003.004.003v.004s-.1.149-.1.149l-.043.216.043.216.099.149v.006s-.004.003-.004.003h-.004s-.049-.043-.049-.043l-.005.006-.005.002h-.003s-.056-.055-.056-.055l-.193-.037-.183.073-.008.009h-.004s-.051.044-.051.044h-.006s-.004-.003-.004-.003v-.004s.1-.149.1-.149l.043-.216-.043-.216-.099-.149v-.006s.004-.003.004-.003h.004Z"/>
      <path class="cls-1" d="M98.367,122.198l.049.041.005-.006.005-.002h.003s.056.055.056.055l.193.037.183-.073.008-.009h.004s.051-.044.051-.044h.006s.004.003.004.003v.004s-.1.149-.1.149l-.043.216.043.216.099.149v.006s-.004.003-.004.003h-.004s-.049-.043-.049-.043l-.005.006-.005.002h-.003s-.056-.055-.056-.055l-.193-.037-.183.073-.008.009h-.004s-.051.044-.051.044h-.006s-.004-.003-.004-.003v-.004s.1-.149.1-.149l.043-.216-.043-.216-.099-.149v-.006s.004-.003.004-.003h.004Z"/>
      <path class="cls-1" d="M123.879,122.198l.049.041.005-.006.005-.002h.003s.056.055.056.055l.193.037.183-.073.008-.009h.004s.051-.044.051-.044h.006s.004.003.004.003v.004s-.1.149-.1.149l-.043.216.043.216.099.149v.006s-.004.003-.004.003h-.004s-.049-.043-.049-.043l-.005.006-.005.002h-.003s-.056-.055-.056-.055l-.193-.037-.183.073-.008.009h-.004s-.051.044-.051.044h-.006s-.004-.003-.004-.003v-.004s.1-.149.1-.149l.043-.216-.043-.216-.099-.149v-.006s.004-.003.004-.003h.004Z"/>
      <path class="cls-1" d="M129.548,122.198l.049.041.005-.006.005-.002h.003s.056.055.056.055l.193.037.183-.073.008-.009h.004s.051-.044.051-.044h.006s.004.003.004.003v.004s-.1.149-.1.149l-.043.216.043.216.099.149v.006s-.004.003-.004.003h-.004s-.049-.043-.049-.043l-.005.006-.005.002h-.003s-.056-.055-.056-.055l-.193-.037-.183.073-.008.009h-.004s-.051.044-.051.044h-.006s-.004-.003-.004-.003v-.004s.1-.149.1-.149l.043-.216-.043-.216-.099-.149v-.006s.004-.003.004-.003h.004Z"/>
      <path class="cls-1" d="M95.532,122.198l.049.041.005-.006.005-.002h.003s.056.055.056.055l.193.037.183-.073.008-.009h.004s.051-.044.051-.044h.006s.004.003.004.003v.004s-.1.149-.1.149l-.043.216.043.216.099.149v.006s-.004.003-.004.003h-.004s-.049-.043-.049-.043l-.005.006-.005.002h-.003s-.056-.055-.056-.055l-.193-.037-.183.073-.008.009h-.004s-.051.044-.051.044h-.006s-.004-.003-.004-.003v-.004s.1-.149.1-.149l.043-.216-.043-.216-.099-.149v-.006s.004-.003.004-.003h.004Z"/>
      <path class="cls-1" d="M128.131,122.198l.049.041.005-.006.005-.002h.003s.056.055.056.055l.193.037.183-.073.008-.009h.004s.051-.044.051-.044h.006s.004.003.004.003v.004s-.1.149-.1.149l-.043.216.043.216.099.149v.006s-.004.003-.004.003h-.004s-.049-.043-.049-.043l-.005.006-.005.002h-.003s-.056-.055-.056-.055l-.193-.037-.183.073-.008.009h-.004s-.051.044-.051.044h-.006s-.004-.003-.004-.003v-.004s.1-.149.1-.149l.043-.216-.043-.216-.099-.149v-.006s.004-.003.004-.003h.004Z"/>
      <path class="cls-1" d="M150.808,122.198l.049.041.005-.006.005-.002h.003s.056.055.056.055l.193.037.183-.073.008-.009h.004s.051-.044.051-.044h.006s.004.003.004.003v.004s-.1.149-.1.149l-.043.216.043.216.099.149v.006s-.004.003-.004.003h-.004s-.049-.043-.049-.043l-.005.006-.005.002h-.003s-.056-.055-.056-.055l-.193-.037-.183.073-.008.009h-.004s-.051.044-.051.044h-.006s-.004-.003-.004-.003v-.004s.1-.149.1-.149l.043-.216-.043-.216-.099-.149v-.006s.004-.003.004-.003h.004Z"/>
      <path class="cls-1" d="M184.824,122.198l.049.041.005-.006.005-.002h.003s.056.055.056.055l.193.037.183-.073.008-.009h.004s.051-.044.051-.044h.006s.004.003.004.003v.004s-.1.149-.1.149l-.043.216.043.216.099.149v.006s-.004.003-.004.003h-.004s-.049-.043-.049-.043l-.005.006-.005.002h-.003s-.056-.055-.056-.055l-.193-.037-.183.073-.008.009h-.004s-.051.044-.051.044h-.006s-.004-.003-.004-.003v-.004s.1-.149.1-.149l.043-.216-.043-.216-.099-.149v-.006s.004-.003.004-.003h.004Z"/>
      <path class="cls-1" d="M99.784,122.198l.049.041.005-.006.005-.002h.003s.056.055.056.055l.193.037.183-.073.008-.009h.004s.051-.044.051-.044h.006s.004.003.004.003v.004s-.1.149-.1.149l-.043.216.043.216.099.149v.006s-.004.003-.004.003h-.004s-.049-.043-.049-.043l-.005.006-.005.002h-.003s-.056-.055-.056-.055l-.193-.037-.183.073-.008.009h-.004s-.051.044-.051.044h-.006s-.004-.003-.004-.003v-.004s.1-.149.1-.149l.043-.216-.043-.216-.099-.149v-.006s.004-.003.004-.003h.004Z"/>
      <path class="cls-1" d="M183.406,122.198l.049.041.005-.006.005-.002h.003s.056.055.056.055l.193.037.183-.073.008-.009h.004s.051-.044.051-.044h.006s.004.003.004.003v.004s-.1.149-.1.149l-.043.216.043.216.099.149v.006s-.004.003-.004.003h-.004s-.049-.043-.049-.043l-.005.006-.005.002h-.003s-.056-.055-.056-.055l-.193-.037-.183.073-.008.009h-.004s-.051.044-.051.044h-.006s-.004-.003-.004-.003v-.004s.1-.149.1-.149l.043-.216-.043-.216-.099-.149v-.006s.004-.003.004-.003h.004Z"/>
      <path class="cls-1" d="M101.202,122.198l.049.041.005-.006.005-.002h.003s.056.055.056.055l.193.037.183-.073.008-.009h.004s.051-.044.051-.044h.006s.004.003.004.003v.004s-.1.149-.1.149l-.043.216.043.216.099.149v.006s-.004.003-.004.003h-.004s-.049-.043-.049-.043l-.005.006-.005.002h-.003s-.056-.055-.056-.055l-.193-.037-.183.073-.008.009h-.004s-.051.044-.051.044h-.006s-.004-.003-.004-.003v-.004s.1-.149.1-.149l.043-.216-.043-.216-.099-.149v-.006s.004-.003.004-.003h.004Z"/>
      <path class="cls-1" d="M181.989,122.198l.049.041.005-.006.005-.002h.003s.056.055.056.055l.193.037.183-.073.008-.009h.004s.051-.044.051-.044h.006s.004.003.004.003v.004s-.1.149-.1.149l-.043.216.043.216.099.149v.006s-.004.003-.004.003h-.004s-.049-.043-.049-.043l-.005.006-.005.002h-.003s-.056-.055-.056-.055l-.193-.037-.183.073-.008.009h-.004s-.051.044-.051.044h-.006s-.004-.003-.004-.003v-.004s.1-.149.1-.149l.043-.216-.043-.216-.099-.149v-.006s.004-.003.004-.003h.004Z"/>
      <path class="cls-1" d="M180.572,122.198l.049.041.005-.006.005-.002h.003s.056.055.056.055l.193.037.183-.073.008-.009h.004s.051-.044.051-.044h.006s.004.003.004.003v.004s-.1.149-.1.149l-.043.216.043.216.099.149v.006s-.004.003-.004.003h-.004s-.049-.043-.049-.043l-.005.006-.005.002h-.003s-.056-.055-.056-.055l-.193-.037-.183.073-.008.009h-.004s-.051.044-.051.044h-.006s-.004-.003-.004-.003v-.004s.1-.149.1-.149l.043-.216-.043-.216-.099-.149v-.006s.004-.003.004-.003h.004Z"/>
      <path class="cls-1" d="M186.241,122.198l.049.041.005-.006.005-.002h.003s.056.055.056.055l.193.037.183-.073.008-.009h.004s.051-.044.051-.044h.006s.004.003.004.003v.004s-.1.149-.1.149l-.043.216.043.216.099.149v.006s-.004.003-.004.003h-.004s-.049-.043-.049-.043l-.005.006-.005.002h-.003s-.056-.055-.056-.055l-.193-.037-.183.073-.008.009h-.004s-.051.044-.051.044h-.006s-.004-.003-.004-.003v-.004s.1-.149.1-.149l.043-.216-.043-.216-.099-.149v-.006s.004-.003.004-.003h.004Z"/>
      <path class="cls-1" d="M96.95,122.198l.049.041.005-.006.005-.002h.003s.056.055.056.055l.193.037.183-.073.008-.009h.004s.051-.044.051-.044h.006s.004.003.004.003v.004s-.1.149-.1.149l-.043.216.043.216.099.149v.006s-.004.003-.004.003h-.004s-.049-.043-.049-.043l-.005.006-.005.002h-.003s-.056-.055-.056-.055l-.193-.037-.183.073-.008.009h-.004s-.051.044-.051.044h-.006s-.004-.003-.004-.003v-.004s.1-.149.1-.149l.043-.216-.043-.216-.099-.149v-.006s.004-.003.004-.003h.004Z"/>
      <path class="cls-1" d="M122.462,122.198l.049.041.005-.006.005-.002h.003s.056.055.056.055l.193.037.183-.073.008-.009h.004s.051-.044.051-.044h.006s.004.003.004.003v.004s-.1.149-.1.149l-.043.216.043.216.099.149v.006s-.004.003-.004.003h-.004s-.049-.043-.049-.043l-.005.006-.005.002h-.003s-.056-.055-.056-.055l-.193-.037-.183.073-.008.009h-.004s-.051.044-.051.044h-.006s-.004-.003-.004-.003v-.004s.1-.149.1-.149l.043-.216-.043-.216-.099-.149v-.006s.004-.003.004-.003h.004Z"/>
      <path class="cls-1" d="M179.155,122.198l.049.041.005-.006.005-.002h.003s.056.055.056.055l.193.037.183-.073.008-.009h.004s.051-.044.051-.044h.006s.004.003.004.003v.004s-.1.149-.1.149l-.043.216.043.216.099.149v.006s-.004.003-.004.003h-.004s-.049-.043-.049-.043l-.005.006-.005.002h-.003s-.056-.055-.056-.055l-.193-.037-.183.073-.008.009h-.004s-.051.044-.051.044h-.006s-.004-.003-.004-.003v-.004s.1-.149.1-.149l.043-.216-.043-.216-.099-.149v-.006s.004-.003.004-.003h.004Z"/>
      <path class="cls-1" d="M94.115,122.198l.049.041.005-.006.005-.002h.003s.056.055.056.055l.193.037.183-.073.008-.009h.004s.051-.044.051-.044h.006s.004.003.004.003v.004s-.1.149-.1.149l-.043.216.043.216.099.149v.006s-.004.003-.004.003h-.004s-.049-.043-.049-.043l-.005.006-.005.002h-.003s-.056-.055-.056-.055l-.193-.037-.183.073-.008.009h-.004s-.051.044-.051.044h-.006s-.004-.003-.004-.003v-.004s.1-.149.1-.149l.043-.216-.043-.216-.099-.149v-.006s.004-.003.004-.003h.004Z"/>
      <path class="cls-1" d="M157.895,122.198l.049.041.005-.006.005-.002h.003s.056.055.056.055l.193.037.183-.073.008-.009h.004s.051-.044.051-.044h.006s.004.003.004.003v.004s-.1.149-.1.149l-.043.216.043.216.099.149v.006s-.004.003-.004.003h-.004s-.049-.043-.049-.043l-.005.006-.005.002h-.003s-.056-.055-.056-.055l-.193-.037-.183.073-.008.009h-.004s-.051.044-.051.044h-.006s-.004-.003-.004-.003v-.004s.1-.149.1-.149l.043-.216-.043-.216-.099-.149v-.006s.004-.003.004-.003h.004Z"/>
      <path class="cls-1" d="M156.477,122.198l.049.041.005-.006.005-.002h.003s.056.055.056.055l.193.037.183-.073.008-.009h.004s.051-.044.051-.044h.006s.004.003.004.003v.004s-.1.149-.1.149l-.043.216.043.216.099.149v.006s-.004.003-.004.003h-.004s-.049-.043-.049-.043l-.005.006-.005.002h-.003s-.056-.055-.056-.055l-.193-.037-.183.073-.008.009h-.004s-.051.044-.051.044h-.006s-.004-.003-.004-.003v-.004s.1-.149.1-.149l.043-.216-.043-.216-.099-.149v-.006s.004-.003.004-.003h.004Z"/>
      <path class="cls-1" d="M125.296,122.198l.049.041.005-.006.005-.002h.003s.056.055.056.055l.193.037.183-.073.008-.009h.004s.051-.044.051-.044h.006s.004.003.004.003v.004s-.1.149-.1.149l-.043.216.043.216.099.149v.006s-.004.003-.004.003h-.004s-.049-.043-.049-.043l-.005.006-.005.002h-.003s-.056-.055-.056-.055l-.193-.037-.183.073-.008.009h-.004s-.051.044-.051.044h-.006s-.004-.003-.004-.003v-.004s.1-.149.1-.149l.043-.216-.043-.216-.099-.149v-.006s.004-.003.004-.003h.004Z"/>
      <path class="cls-1" d="M155.06,122.198l.049.041.005-.006.005-.002h.003s.056.055.056.055l.193.037.183-.073.008-.009h.004s.051-.044.051-.044h.006s.004.003.004.003v.004s-.1.149-.1.149l-.043.216.043.216.099.149v.006s-.004.003-.004.003h-.004s-.049-.043-.049-.043l-.005.006-.005.002h-.003s-.056-.055-.056-.055l-.193-.037-.183.073-.008.009h-.004s-.051.044-.051.044h-.006s-.004-.003-.004-.003v-.004s.1-.149.1-.149l.043-.216-.043-.216-.099-.149v-.006s.004-.003.004-.003h.004Z"/>
      <path class="cls-1" d="M153.643,122.198l.049.041.005-.006.005-.002h.003s.056.055.056.055l.193.037.183-.073.008-.009h.004s.051-.044.051-.044h.006s.004.003.004.003v.004s-.1.149-.1.149l-.043.216.043.216.099.149v.006s-.004.003-.004.003h-.004s-.049-.043-.049-.043l-.005.006-.005.002h-.003s-.056-.055-.056-.055l-.193-.037-.183.073-.008.009h-.004s-.051.044-.051.044h-.006s-.004-.003-.004-.003v-.004s.1-.149.1-.149l.043-.216-.043-.216-.099-.149v-.006s.004-.003.004-.003h.004Z"/>
      <path class="cls-1" d="M126.714,122.198l.049.041.005-.006.005-.002h.003s.056.055.056.055l.193.037.183-.073.008-.009h.004s.051-.044.051-.044h.006s.004.003.004.003v.004s-.1.149-.1.149l-.043.216.043.216.099.149v.006s-.004.003-.004.003h-.004s-.049-.043-.049-.043l-.005.006-.005.002h-.003s-.056-.055-.056-.055l-.193-.037-.183.073-.008.009h-.004s-.051.044-.051.044h-.006s-.004-.003-.004-.003v-.004s.1-.149.1-.149l.043-.216-.043-.216-.099-.149v-.006s.004-.003.004-.003h.004Z"/>
      <path class="cls-1" d="M152.225,122.198l.049.041.005-.006.005-.002h.003s.056.055.056.055l.193.037.183-.073.008-.009h.004s.051-.044.051-.044h.006s.004.003.004.003v.004s-.1.149-.1.149l-.043.216.043.216.099.149v.006s-.004.003-.004.003h-.004s-.049-.043-.049-.043l-.005.006-.005.002h-.003s-.056-.055-.056-.055l-.193-.037-.183.073-.008.009h-.004s-.051.044-.051.044h-.006s-.004-.003-.004-.003v-.004s.1-.149.1-.149l.043-.216-.043-.216-.099-.149v-.006s.004-.003.004-.003h.004Z"/>
      <circle class="cls-2" cx="72.411" cy="35.901" r="2.837"/>
      <circle class="cls-2" cx="101.211" cy="35.901" r="2.837"/>
      <circle class="cls-2" cx="86.811" cy="35.901" r="5.956"/>
      <circle class="cls-2" cx="97.611" cy="28.701" r="3.385"/>
      <circle class="cls-2" cx="79.611" cy="21.501" r="3.385"/>
      <circle class="cls-2" cx="153.213" cy="165.09" r=".57"/>
      <circle class="cls-2" cx="150.378" cy="165.09" r=".57"/>
      <circle class="cls-2" cx="151.795" cy="122.57" r=".57"/>
      <circle class="cls-2" cx="157.465" cy="165.09" r=".57"/>
      <circle class="cls-2" cx="154.63" cy="122.57" r=".57"/>
      <circle class="cls-2" cx="150.378" cy="122.57" r=".57"/>
      <circle class="cls-2" cx="157.465" cy="122.57" r=".57"/>
      <circle class="cls-2" cx="153.213" cy="122.57" r=".57"/>
      <circle class="cls-2" cx="156.047" cy="122.57" r=".57"/>
      <circle class="cls-2" cx="158.882" cy="165.09" r=".57"/>
      <circle class="cls-2" cx="154.63" cy="165.09" r=".57"/>
      <circle class="cls-2" cx="151.795" cy="165.09" r=".57"/>
      <circle class="cls-2" cx="158.882" cy="122.57" r=".57"/>
      <circle class="cls-2" cx="156.047" cy="165.09" r=".57"/>
      <circle class="cls-2" cx="154.63" cy="122.57" r=".57"/>
      <circle class="cls-2" cx="270.387" cy="14.661" r="2.305"/>
      <circle class="cls-2" cx="270.387" cy="21.861" r="2.305"/>
      <circle class="cls-2" cx="270.387" cy="29.061" r="2.305"/>
      <circle class="cls-2" cx="270.387" cy="36.261" r="2.305"/>
      <circle class="cls-2" cx="270.387" cy="43.461" r="2.305"/>
      <circle class="cls-2" cx="270.387" cy="50.661" r="2.305"/>
      <circle class="cls-2" cx="270.387" cy="57.861" r="2.305"/>
      <circle class="cls-2" cx="270.387" cy="65.061" r="2.305"/>
      <circle class="cls-2" cx="270.387" cy="72.261" r="2.305"/>
      <circle class="cls-2" cx="270.387" cy="79.461" r="2.305"/>
      <circle class="cls-2" cx="270.387" cy="86.661" r="2.305"/>
      <circle class="cls-2" cx="270.387" cy="93.861" r="2.305"/>
      <circle class="cls-2" cx="227.243" cy="93.861" r="2.305"/>
      <circle class="cls-2" cx="227.243" cy="86.661" r="2.305"/>
      <circle class="cls-2" cx="227.243" cy="79.461" r="2.305"/>
      <circle class="cls-2" cx="227.243" cy="72.261" r="2.305"/>
      <circle class="cls-2" cx="227.243" cy="65.061" r="2.305"/>
      <circle class="cls-2" cx="227.243" cy="57.861" r="2.305"/>
      <circle class="cls-2" cx="227.243" cy="50.661" r="2.305"/>
      <circle class="cls-2" cx="227.243" cy="43.461" r="2.305"/>
      <circle class="cls-2" cx="227.243" cy="36.261" r="2.305"/>
      <circle class="cls-2" cx="227.243" cy="29.061" r="2.305"/>
      <circle class="cls-2" cx="227.243" cy="21.861" r="2.305"/>
      <circle class="cls-2" cx="227.243" cy="14.661" r="2.305"/>
      <circle class="cls-2" cx="155.211" cy="89.901" r="2.837"/>
      <circle class="cls-2" cx="140.811" cy="89.901" r="5.956"/>
      <circle class="cls-2" cx="126.411" cy="89.901" r="2.837"/>
      <circle class="cls-2" cx="151.611" cy="82.701" r="3.385"/>
      <circle class="cls-2" cx="133.611" cy="75.501" r="3.385"/>
      <circle class="cls-2" cx="180.142" cy="165.09" r=".57"/>
      <circle class="cls-2" cx="182.976" cy="122.57" r=".57"/>
      <circle class="cls-2" cx="185.811" cy="165.09" r=".57"/>
      <circle class="cls-2" cx="185.811" cy="122.57" r=".57"/>
      <circle class="cls-2" cx="184.394" cy="165.09" r=".57"/>
      <circle class="cls-2" cx="180.142" cy="122.57" r=".57"/>
      <circle class="cls-2" cx="178.724" cy="122.57" r=".57"/>
      <circle class="cls-2" cx="187.228" cy="165.09" r=".57"/>
      <circle class="cls-2" cx="181.559" cy="165.09" r=".57"/>
      <circle class="cls-2" cx="184.394" cy="122.57" r=".57"/>
      <circle class="cls-2" cx="178.724" cy="165.09" r=".57"/>
      <circle class="cls-2" cx="182.976" cy="165.09" r=".57"/>
      <circle class="cls-2" cx="182.976" cy="122.57" r=".57"/>
      <circle class="cls-2" cx="187.228" cy="122.57" r=".57"/>
      <circle class="cls-2" cx="181.559" cy="122.57" r=".57"/>
      <circle class="cls-2" cx="32.811" cy="35.901" r="5.956"/>
      <circle class="cls-2" cx="47.211" cy="35.901" r="2.837"/>
      <circle class="cls-2" cx="18.411" cy="35.901" r="2.837"/>
      <circle class="cls-2" cx="43.611" cy="28.701" r="3.385"/>
      <circle class="cls-2" cx="25.611" cy="21.501" r="3.385"/>
      <circle class="cls-2" cx="207.638" cy="121.861" r="2.979"/>
      <circle class="cls-2" cx="207.638" cy="140.287" r="2.979"/>
      <circle class="cls-2" cx="209.211" cy="89.901" r="2.837"/>
      <circle class="cls-2" cx="180.411" cy="89.901" r="2.837"/>
      <circle class="cls-2" cx="194.811" cy="89.901" r="5.956"/>
      <circle class="cls-2" cx="205.611" cy="82.701" r="3.385"/>
      <circle class="cls-2" cx="187.611" cy="75.501" r="3.385"/>
      <circle class="cls-2" cx="95.102" cy="122.57" r=".57"/>
      <circle class="cls-2" cx="100.772" cy="165.09" r=".57"/>
      <circle class="cls-2" cx="99.354" cy="165.09" r=".57"/>
      <circle class="cls-2" cx="93.685" cy="165.09" r=".57"/>
      <circle class="cls-2" cx="102.189" cy="122.57" r=".57"/>
      <circle class="cls-2" cx="100.772" cy="122.57" r=".57"/>
      <circle class="cls-2" cx="97.937" cy="122.57" r=".57"/>
      <circle class="cls-2" cx="97.937" cy="165.09" r=".57"/>
      <circle class="cls-2" cx="96.52" cy="122.57" r=".57"/>
      <circle class="cls-2" cx="102.189" cy="165.09" r=".57"/>
      <circle class="cls-2" cx="99.354" cy="122.57" r=".57"/>
      <circle class="cls-2" cx="95.102" cy="165.09" r=".57"/>
      <circle class="cls-2" cx="93.685" cy="122.57" r=".57"/>
      <circle class="cls-2" cx="97.937" cy="122.57" r=".57"/>
      <circle class="cls-2" cx="96.52" cy="165.09" r=".57"/>
      <circle class="cls-2" cx="86.811" cy="89.901" r="5.956"/>
      <circle class="cls-2" cx="101.211" cy="89.901" r="2.837"/>
      <circle class="cls-2" cx="72.411" cy="89.901" r="2.837"/>
      <circle class="cls-2" cx="97.611" cy="82.701" r="3.385"/>
      <circle class="cls-2" cx="79.611" cy="75.501" r="3.385"/>
      <circle class="cls-2" cx="126.283" cy="122.57" r=".57"/>
      <circle class="cls-2" cx="129.118" cy="122.57" r=".57"/>
      <circle class="cls-2" cx="126.283" cy="165.09" r=".57"/>
      <circle class="cls-2" cx="129.118" cy="165.09" r=".57"/>
      <circle class="cls-2" cx="124.866" cy="122.57" r=".57"/>
      <circle class="cls-2" cx="130.535" cy="165.09" r=".57"/>
      <circle class="cls-2" cx="123.449" cy="122.57" r=".57"/>
      <circle class="cls-2" cx="127.701" cy="165.09" r=".57"/>
      <circle class="cls-2" cx="122.031" cy="165.09" r=".57"/>
      <circle class="cls-2" cx="127.701" cy="122.57" r=".57"/>
      <circle class="cls-2" cx="122.031" cy="122.57" r=".57"/>
      <circle class="cls-2" cx="130.535" cy="122.57" r=".57"/>
      <circle class="cls-2" cx="126.283" cy="122.57" r=".57"/>
      <circle class="cls-2" cx="124.866" cy="165.09" r=".57"/>
      <circle class="cls-2" cx="123.449" cy="165.09" r=".57"/>
      <circle class="cls-2" cx="140.811" cy="35.901" r="5.956"/>
      <circle class="cls-2" cx="126.411" cy="35.901" r="2.837"/>
      <circle class="cls-2" cx="155.211" cy="35.901" r="2.837"/>
      <circle class="cls-2" cx="151.611" cy="28.701" r="3.385"/>
      <circle class="cls-2" cx="133.611" cy="21.501" r="3.385"/>
      <circle class="cls-2" cx="180.411" cy="35.901" r="2.837"/>
      <circle class="cls-2" cx="209.211" cy="35.901" r="2.837"/>
      <circle class="cls-2" cx="194.811" cy="35.901" r="5.956"/>
      <circle class="cls-2" cx="205.611" cy="28.701" r="3.385"/>
      <circle class="cls-2" cx="187.611" cy="21.501" r="3.385"/>
      <circle class="cls-2" cx="248.797" cy="126.454" r="5.956"/>
      <circle class="cls-2" cx="234.397" cy="126.454" r="2.837"/>
      <circle class="cls-2" cx="263.197" cy="126.454" r="2.837"/>
      <g>
        <path class="cls-1" d="M224.558,116.532l.011-.055.031-.047.047-.031.055-.011h5.669l.055.011.047.031.031.047.011.055v5.669l-.011.055-.031.047-.047.031-.055.011h-5.669l-.055-.011-.047-.031-.031-.047-.011-.055v-5.669Z"/>
        <circle class="cls-2" cx="227.537" cy="133.54" r="2.979"/>
      </g>
      <circle class="cls-2" cx="227.537" cy="126.454" r="2.979"/>
      <circle class="cls-2" cx="268.639" cy="133.54" r="2.979"/>
      <circle class="cls-2" cx="259.597" cy="119.254" r="3.385"/>
      <circle class="cls-2" cx="268.639" cy="119.367" r="2.979"/>
      <circle class="cls-2" cx="241.597" cy="112.054" r="3.385"/>
      <circle class="cls-2" cx="47.211" cy="89.901" r="2.837"/>
      <circle class="cls-2" cx="32.811" cy="89.901" r="5.956"/>
      <circle class="cls-2" cx="18.411" cy="89.901" r="2.837"/>
      <circle class="cls-2" cx="43.611" cy="82.701" r="3.385"/>
      <circle class="cls-2" cx="25.611" cy="75.501" r="3.385"/>
    </g>
    <g>
      <path class="cls-1" d="M98.367,164.718l.049.041.005-.006.005-.002h.003s.056.055.056.055l.193.037.183-.073.008-.009h.004s.051-.044.051-.044h.006s.004.003.004.003v.004s-.1.149-.1.149l-.043.216.043.216.099.149v.006s-.004.003-.004.003h-.004s-.049-.043-.049-.043l-.005.006-.005.002h-.003s-.056-.055-.056-.055l-.193-.037-.183.073-.008.009h-.004s-.051.044-.051.044h-.006s-.004-.003-.004-.003v-.004s.1-.149.1-.149l.043-.216-.043-.216-.099-.149v-.006s.004-.003.004-.003h.004Z"/>
      <path class="cls-1" d="M179.155,164.718l.049.041.005-.006.005-.002h.003s.056.055.056.055l.193.037.183-.073.008-.009h.004s.051-.044.051-.044h.006s.004.003.004.003v.004s-.1.149-.1.149l-.043.216.043.216.099.149v.006s-.004.003-.004.003h-.004s-.049-.043-.049-.043l-.005.006-.005.002h-.003s-.056-.055-.056-.055l-.193-.037-.183.073-.008.009h-.004s-.051.044-.051.044h-.006s-.004-.003-.004-.003v-.004s.1-.149.1-.149l.043-.216-.043-.216-.099-.149v-.006s.004-.003.004-.003h.004Z"/>
      <path class="cls-1" d="M155.06,164.718l.049.041.005-.006.005-.002h.003s.056.055.056.055l.193.037.183-.073.008-.009h.004s.051-.044.051-.044h.006s.004.003.004.003v.004s-.1.149-.1.149l-.043.216.043.216.099.149v.006s-.004.003-.004.003h-.004s-.049-.043-.049-.043l-.005.006-.005.002h-.003s-.056-.055-.056-.055l-.193-.037-.183.073-.008.009h-.004s-.051.044-.051.044h-.006s-.004-.003-.004-.003v-.004s.1-.149.1-.149l.043-.216-.043-.216-.099-.149v-.006s.004-.003.004-.003h.004Z"/>
      <path class="cls-1" d="M94.115,164.718l.049.041.005-.006.005-.002h.003s.056.055.056.055l.193.037.183-.073.008-.009h.004s.051-.044.051-.044h.006s.004.003.004.003v.004s-.1.149-.1.149l-.043.216.043.216.099.149v.006s-.004.003-.004.003h-.004s-.049-.043-.049-.043l-.005.006-.005.002h-.003s-.056-.055-.056-.055l-.193-.037-.183.073-.008.009h-.004s-.051.044-.051.044h-.006s-.004-.003-.004-.003v-.004s.1-.149.1-.149l.043-.216-.043-.216-.099-.149v-.006s.004-.003.004-.003h.004Z"/>
      <path class="cls-1" d="M153.643,164.718l.049.041.005-.006.005-.002h.003s.056.055.056.055l.193.037.183-.073.008-.009h.004s.051-.044.051-.044h.006s.004.003.004.003v.004s-.1.149-.1.149l-.043.216.043.216.099.149v.006s-.004.003-.004.003h-.004s-.049-.043-.049-.043l-.005.006-.005.002h-.003s-.056-.055-.056-.055l-.193-.037-.183.073-.008.009h-.004s-.051.044-.051.044h-.006s-.004-.003-.004-.003v-.004s.1-.149.1-.149l.043-.216-.043-.216-.099-.149v-.006s.004-.003.004-.003h.004Z"/>
      <path class="cls-1" d="M99.784,164.718l.049.041.005-.006.005-.002h.003s.056.055.056.055l.193.037.183-.073.008-.009h.004s.051-.044.051-.044h.006s.004.003.004.003v.004s-.1.149-.1.149l-.043.216.043.216.099.149v.006s-.004.003-.004.003h-.004s-.049-.043-.049-.043l-.005.006-.005.002h-.003s-.056-.055-.056-.055l-.193-.037-.183.073-.008.009h-.004s-.051.044-.051.044h-.006s-.004-.003-.004-.003v-.004s.1-.149.1-.149l.043-.216-.043-.216-.099-.149v-.006s.004-.003.004-.003h.004Z"/>
      <path class="cls-1" d="M101.202,164.718l.049.041.005-.006.005-.002h.003s.056.055.056.055l.193.037.183-.073.008-.009h.004s.051-.044.051-.044h.006s.004.003.004.003v.004s-.1.149-.1.149l-.043.216.043.216.099.149v.006s-.004.003-.004.003h-.004s-.049-.043-.049-.043l-.005.006-.005.002h-.003s-.056-.055-.056-.055l-.193-.037-.183.073-.008.009h-.004s-.051.044-.051.044h-.006s-.004-.003-.004-.003v-.004s.1-.149.1-.149l.043-.216-.043-.216-.099-.149v-.006s.004-.003.004-.003h.004Z"/>
      <path class="cls-1" d="M128.131,164.718l.049.041.005-.006.005-.002h.003s.056.055.056.055l.193.037.183-.073.008-.009h.004s.051-.044.051-.044h.006s.004.003.004.003v.004s-.1.149-.1.149l-.043.216.043.216.099.149v.006s-.004.003-.004.003h-.004s-.049-.043-.049-.043l-.005.006-.005.002h-.003s-.056-.055-.056-.055l-.193-.037-.183.073-.008.009h-.004s-.051.044-.051.044h-.006s-.004-.003-.004-.003v-.004s.1-.149.1-.149l.043-.216-.043-.216-.099-.149v-.006s.004-.003.004-.003h.004Z"/>
      <path class="cls-1" d="M122.462,164.718l.049.041.005-.006.005-.002h.003s.056.055.056.055l.193.037.183-.073.008-.009h.004s.051-.044.051-.044h.006s.004.003.004.003v.004s-.1.149-.1.149l-.043.216.043.216.099.149v.006s-.004.003-.004.003h-.004s-.049-.043-.049-.043l-.005.006-.005.002h-.003s-.056-.055-.056-.055l-.193-.037-.183.073-.008.009h-.004s-.051.044-.051.044h-.006s-.004-.003-.004-.003v-.004s.1-.149.1-.149l.043-.216-.043-.216-.099-.149v-.006s.004-.003.004-.003h.004Z"/>
      <path class="cls-1" d="M186.241,164.718l.049.041.005-.006.005-.002h.003s.056.055.056.055l.193.037.183-.073.008-.009h.004s.051-.044.051-.044h.006s.004.003.004.003v.004s-.1.149-.1.149l-.043.216.043.216.099.149v.006s-.004.003-.004.003h-.004s-.049-.043-.049-.043l-.005.006-.005.002h-.003s-.056-.055-.056-.055l-.193-.037-.183.073-.008.009h-.004s-.051.044-.051.044h-.006s-.004-.003-.004-.003v-.004s.1-.149.1-.149l.043-.216-.043-.216-.099-.149v-.006s.004-.003.004-.003h.004Z"/>
      <path class="cls-1" d="M125.296,164.718l.049.041.005-.006.005-.002h.003s.056.055.056.055l.193.037.183-.073.008-.009h.004s.051-.044.051-.044h.006s.004.003.004.003v.004s-.1.149-.1.149l-.043.216.043.216.099.149v.006s-.004.003-.004.003h-.004s-.049-.043-.049-.043l-.005.006-.005.002h-.003s-.056-.055-.056-.055l-.193-.037-.183.073-.008.009h-.004s-.051.044-.051.044h-.006s-.004-.003-.004-.003v-.004s.1-.149.1-.149l.043-.216-.043-.216-.099-.149v-.006s.004-.003.004-.003h.004Z"/>
      <path class="cls-1" d="M183.406,164.718l.049.041.005-.006.005-.002h.003s.056.055.056.055l.193.037.183-.073.008-.009h.004s.051-.044.051-.044h.006s.004.003.004.003v.004s-.1.149-.1.149l-.043.216.043.216.099.149v.006s-.004.003-.004.003h-.004s-.049-.043-.049-.043l-.005.006-.005.002h-.003s-.056-.055-.056-.055l-.193-.037-.183.073-.008.009h-.004s-.051.044-.051.044h-.006s-.004-.003-.004-.003v-.004s.1-.149.1-.149l.043-.216-.043-.216-.099-.149v-.006s.004-.003.004-.003h.004Z"/>
      <path class="cls-1" d="M95.532,164.718l.049.041.005-.006.005-.002h.003s.056.055.056.055l.193.037.183-.073.008-.009h.004s.051-.044.051-.044h.006s.004.003.004.003v.004s-.1.149-.1.149l-.043.216.043.216.099.149v.006s-.004.003-.004.003h-.004s-.049-.043-.049-.043l-.005.006-.005.002h-.003s-.056-.055-.056-.055l-.193-.037-.183.073-.008.009h-.004s-.051.044-.051.044h-.006s-.004-.003-.004-.003v-.004s.1-.149.1-.149l.043-.216-.043-.216-.099-.149v-.006s.004-.003.004-.003h.004Z"/>
      <path class="cls-1" d="M152.225,164.718l.049.041.005-.006.005-.002h.003s.056.055.056.055l.193.037.183-.073.008-.009h.004s.051-.044.051-.044h.006s.004.003.004.003v.004s-.1.149-.1.149l-.043.216.043.216.099.149v.006s-.004.003-.004.003h-.004s-.049-.043-.049-.043l-.005.006-.005.002h-.003s-.056-.055-.056-.055l-.193-.037-.183.073-.008.009h-.004s-.051.044-.051.044h-.006s-.004-.003-.004-.003v-.004s.1-.149.1-.149l.043-.216-.043-.216-.099-.149v-.006s.004-.003.004-.003h.004Z"/>
      <path class="cls-1" d="M129.548,164.718l.049.041.005-.006.005-.002h.003s.056.055.056.055l.193.037.183-.073.008-.009h.004s.051-.044.051-.044h.006s.004.003.004.003v.004s-.1.149-.1.149l-.043.216.043.216.099.149v.006s-.004.003-.004.003h-.004s-.049-.043-.049-.043l-.005.006-.005.002h-.003s-.056-.055-.056-.055l-.193-.037-.183.073-.008.009h-.004s-.051.044-.051.044h-.006s-.004-.003-.004-.003v-.004s.1-.149.1-.149l.043-.216-.043-.216-.099-.149v-.006s.004-.003.004-.003h.004Z"/>
      <path class="cls-1" d="M96.95,164.718l.049.041.005-.006.005-.002h.003s.056.055.056.055l.193.037.183-.073.008-.009h.004s.051-.044.051-.044h.006s.004.003.004.003v.004s-.1.149-.1.149l-.043.216.043.216.099.149v.006s-.004.003-.004.003h-.004s-.049-.043-.049-.043l-.005.006-.005.002h-.003s-.056-.055-.056-.055l-.193-.037-.183.073-.008.009h-.004s-.051.044-.051.044h-.006s-.004-.003-.004-.003v-.004s.1-.149.1-.149l.043-.216-.043-.216-.099-.149v-.006s.004-.003.004-.003h.004Z"/>
      <path class="cls-1" d="M156.477,164.718l.049.041.005-.006.005-.002h.003s.056.055.056.055l.193.037.183-.073.008-.009h.004s.051-.044.051-.044h.006s.004.003.004.003v.004s-.1.149-.1.149l-.043.216.043.216.099.149v.006s-.004.003-.004.003h-.004s-.049-.043-.049-.043l-.005.006-.005.002h-.003s-.056-.055-.056-.055l-.193-.037-.183.073-.008.009h-.004s-.051.044-.051.044h-.006s-.004-.003-.004-.003v-.004s.1-.149.1-.149l.043-.216-.043-.216-.099-.149v-.006s.004-.003.004-.003h.004Z"/>
      <path class="cls-1" d="M123.879,164.718l.049.041.005-.006.005-.002h.003s.056.055.056.055l.193.037.183-.073.008-.009h.004s.051-.044.051-.044h.006s.004.003.004.003v.004s-.1.149-.1.149l-.043.216.043.216.099.149v.006s-.004.003-.004.003h-.004s-.049-.043-.049-.043l-.005.006-.005.002h-.003s-.056-.055-.056-.055l-.193-.037-.183.073-.008.009h-.004s-.051.044-.051.044h-.006s-.004-.003-.004-.003v-.004s.1-.149.1-.149l.043-.216-.043-.216-.099-.149v-.006s.004-.003.004-.003h.004Z"/>
      <path class="cls-1" d="M180.572,164.718l.049.041.005-.006.005-.002h.003s.056.055.056.055l.193.037.183-.073.008-.009h.004s.051-.044.051-.044h.006s.004.003.004.003v.004s-.1.149-.1.149l-.043.216.043.216.099.149v.006s-.004.003-.004.003h-.004s-.049-.043-.049-.043l-.005.006-.005.002h-.003s-.056-.055-.056-.055l-.193-.037-.183.073-.008.009h-.004s-.051.044-.051.044h-.006s-.004-.003-.004-.003v-.004s.1-.149.1-.149l.043-.216-.043-.216-.099-.149v-.006s.004-.003.004-.003h.004Z"/>
      <path class="cls-1" d="M181.989,164.718l.049.041.005-.006.005-.002h.003s.056.055.056.055l.193.037.183-.073.008-.009h.004s.051-.044.051-.044h.006s.004.003.004.003v.004s-.1.149-.1.149l-.043.216.043.216.099.149v.006s-.004.003-.004.003h-.004s-.049-.043-.049-.043l-.005.006-.005.002h-.003s-.056-.055-.056-.055l-.193-.037-.183.073-.008.009h-.004s-.051.044-.051.044h-.006s-.004-.003-.004-.003v-.004s.1-.149.1-.149l.043-.216-.043-.216-.099-.149v-.006s.004-.003.004-.003h.004Z"/>
      <path class="cls-1" d="M157.895,164.718l.049.041.005-.006.005-.002h.003s.056.055.056.055l.193.037.183-.073.008-.009h.004s.051-.044.051-.044h.006s.004.003.004.003v.004s-.1.149-.1.149l-.043.216.043.216.099.149v.006s-.004.003-.004.003h-.004s-.049-.043-.049-.043l-.005.006-.005.002h-.003s-.056-.055-.056-.055l-.193-.037-.183.073-.008.009h-.004s-.051.044-.051.044h-.006s-.004-.003-.004-.003v-.004s.1-.149.1-.149l.043-.216-.043-.216-.099-.149v-.006s.004-.003.004-.003h.004Z"/>
      <path class="cls-1" d="M126.714,164.718l.049.041.005-.006.005-.002h.003s.056.055.056.055l.193.037.183-.073.008-.009h.004s.051-.044.051-.044h.006s.004.003.004.003v.004s-.1.149-.1.149l-.043.216.043.216.099.149v.006s-.004.003-.004.003h-.004s-.049-.043-.049-.043l-.005.006-.005.002h-.003s-.056-.055-.056-.055l-.193-.037-.183.073-.008.009h-.004s-.051.044-.051.044h-.006s-.004-.003-.004-.003v-.004s.1-.149.1-.149l.043-.216-.043-.216-.099-.149v-.006s.004-.003.004-.003h.004Z"/>
      <path class="cls-1" d="M150.808,164.718l.049.041.005-.006.005-.002h.003s.056.055.056.055l.193.037.183-.073.008-.009h.004s.051-.044.051-.044h.006s.004.003.004.003v.004s-.1.149-.1.149l-.043.216.043.216.099.149v.006s-.004.003-.004.003h-.004s-.049-.043-.049-.043l-.005.006-.005.002h-.003s-.056-.055-.056-.055l-.193-.037-.183.073-.008.009h-.004s-.051.044-.051.044h-.006s-.004-.003-.004-.003v-.004s.1-.149.1-.149l.043-.216-.043-.216-.099-.149v-.006s.004-.003.004-.003h.004Z"/>
      <path class="cls-1" d="M184.824,164.718l.049.041.005-.006.005-.002h.003s.056.055.056.055l.193.037.183-.073.008-.009h.004s.051-.044.051-.044h.006s.004.003.004.003v.004s-.1.149-.1.149l-.043.216.043.216.099.149v.006s-.004.003-.004.003h-.004s-.049-.043-.049-.043l-.005.006-.005.002h-.003s-.056-.055-.056-.055l-.193-.037-.183.073-.008.009h-.004s-.051.044-.051.044h-.006s-.004-.003-.004-.003v-.004s.1-.149.1-.149l.043-.216-.043-.216-.099-.149v-.006s.004-.003.004-.003h.004Z"/>
      <path class="cls-1" d="M98.367,122.198l.049.041.005-.006.005-.002h.003s.056.055.056.055l.193.037.183-.073.008-.009h.004s.051-.044.051-.044h.006s.004.003.004.003v.004s-.1.149-.1.149l-.043.216.043.216.099.149v.006s-.004.003-.004.003h-.004s-.049-.043-.049-.043l-.005.006-.005.002h-.003s-.056-.055-.056-.055l-.193-.037-.183.073-.008.009h-.004s-.051.044-.051.044h-.006s-.004-.003-.004-.003v-.004s.1-.149.1-.149l.043-.216-.043-.216-.099-.149v-.006s.004-.003.004-.003h.004Z"/>
      <path class="cls-1" d="M123.879,122.198l.049.041.005-.006.005-.002h.003s.056.055.056.055l.193.037.183-.073.008-.009h.004s.051-.044.051-.044h.006s.004.003.004.003v.004s-.1.149-.1.149l-.043.216.043.216.099.149v.006s-.004.003-.004.003h-.004s-.049-.043-.049-.043l-.005.006-.005.002h-.003s-.056-.055-.056-.055l-.193-.037-.183.073-.008.009h-.004s-.051.044-.051.044h-.006s-.004-.003-.004-.003v-.004s.1-.149.1-.149l.043-.216-.043-.216-.099-.149v-.006s.004-.003.004-.003h.004Z"/>
      <path class="cls-1" d="M129.548,122.198l.049.041.005-.006.005-.002h.003s.056.055.056.055l.193.037.183-.073.008-.009h.004s.051-.044.051-.044h.006s.004.003.004.003v.004s-.1.149-.1.149l-.043.216.043.216.099.149v.006s-.004.003-.004.003h-.004s-.049-.043-.049-.043l-.005.006-.005.002h-.003s-.056-.055-.056-.055l-.193-.037-.183.073-.008.009h-.004s-.051.044-.051.044h-.006s-.004-.003-.004-.003v-.004s.1-.149.1-.149l.043-.216-.043-.216-.099-.149v-.006s.004-.003.004-.003h.004Z"/>
      <path class="cls-1" d="M95.532,122.198l.049.041.005-.006.005-.002h.003s.056.055.056.055l.193.037.183-.073.008-.009h.004s.051-.044.051-.044h.006s.004.003.004.003v.004s-.1.149-.1.149l-.043.216.043.216.099.149v.006s-.004.003-.004.003h-.004s-.049-.043-.049-.043l-.005.006-.005.002h-.003s-.056-.055-.056-.055l-.193-.037-.183.073-.008.009h-.004s-.051.044-.051.044h-.006s-.004-.003-.004-.003v-.004s.1-.149.1-.149l.043-.216-.043-.216-.099-.149v-.006s.004-.003.004-.003h.004Z"/>
      <path class="cls-1" d="M128.131,122.198l.049.041.005-.006.005-.002h.003s.056.055.056.055l.193.037.183-.073.008-.009h.004s.051-.044.051-.044h.006s.004.003.004.003v.004s-.1.149-.1.149l-.043.216.043.216.099.149v.006s-.004.003-.004.003h-.004s-.049-.043-.049-.043l-.005.006-.005.002h-.003s-.056-.055-.056-.055l-.193-.037-.183.073-.008.009h-.004s-.051.044-.051.044h-.006s-.004-.003-.004-.003v-.004s.1-.149.1-.149l.043-.216-.043-.216-.099-.149v-.006s.004-.003.004-.003h.004Z"/>
      <path class="cls-1" d="M150.808,122.198l.049.041.005-.006.005-.002h.003s.056.055.056.055l.193.037.183-.073.008-.009h.004s.051-.044.051-.044h.006s.004.003.004.003v.004s-.1.149-.1.149l-.043.216.043.216.099.149v.006s-.004.003-.004.003h-.004s-.049-.043-.049-.043l-.005.006-.005.002h-.003s-.056-.055-.056-.055l-.193-.037-.183.073-.008.009h-.004s-.051.044-.051.044h-.006s-.004-.003-.004-.003v-.004s.1-.149.1-.149l.043-.216-.043-.216-.099-.149v-.006s.004-.003.004-.003h.004Z"/>
      <path class="cls-1" d="M184.824,122.198l.049.041.005-.006.005-.002h.003s.056.055.056.055l.193.037.183-.073.008-.009h.004s.051-.044.051-.044h.006s.004.003.004.003v.004s-.1.149-.1.149l-.043.216.043.216.099.149v.006s-.004.003-.004.003h-.004s-.049-.043-.049-.043l-.005.006-.005.002h-.003s-.056-.055-.056-.055l-.193-.037-.183.073-.008.009h-.004s-.051.044-.051.044h-.006s-.004-.003-.004-.003v-.004s.1-.149.1-.149l.043-.216-.043-.216-.099-.149v-.006s.004-.003.004-.003h.004Z"/>
      <path class="cls-1" d="M99.784,122.198l.049.041.005-.006.005-.002h.003s.056.055.056.055l.193.037.183-.073.008-.009h.004s.051-.044.051-.044h.006s.004.003.004.003v.004s-.1.149-.1.149l-.043.216.043.216.099.149v.006s-.004.003-.004.003h-.004s-.049-.043-.049-.043l-.005.006-.005.002h-.003s-.056-.055-.056-.055l-.193-.037-.183.073-.008.009h-.004s-.051.044-.051.044h-.006s-.004-.003-.004-.003v-.004s.1-.149.1-.149l.043-.216-.043-.216-.099-.149v-.006s.004-.003.004-.003h.004Z"/>
      <path class="cls-1" d="M183.406,122.198l.049.041.005-.006.005-.002h.003s.056.055.056.055l.193.037.183-.073.008-.009h.004s.051-.044.051-.044h.006s.004.003.004.003v.004s-.1.149-.1.149l-.043.216.043.216.099.149v.006s-.004.003-.004.003h-.004s-.049-.043-.049-.043l-.005.006-.005.002h-.003s-.056-.055-.056-.055l-.193-.037-.183.073-.008.009h-.004s-.051.044-.051.044h-.006s-.004-.003-.004-.003v-.004s.1-.149.1-.149l.043-.216-.043-.216-.099-.149v-.006s.004-.003.004-.003h.004Z"/>
      <path class="cls-1" d="M101.202,122.198l.049.041.005-.006.005-.002h.003s.056.055.056.055l.193.037.183-.073.008-.009h.004s.051-.044.051-.044h.006s.004.003.004.003v.004s-.1.149-.1.149l-.043.216.043.216.099.149v.006s-.004.003-.004.003h-.004s-.049-.043-.049-.043l-.005.006-.005.002h-.003s-.056-.055-.056-.055l-.193-.037-.183.073-.008.009h-.004s-.051.044-.051.044h-.006s-.004-.003-.004-.003v-.004s.1-.149.1-.149l.043-.216-.043-.216-.099-.149v-.006s.004-.003.004-.003h.004Z"/>
      <path class="cls-1" d="M181.989,122.198l.049.041.005-.006.005-.002h.003s.056.055.056.055l.193.037.183-.073.008-.009h.004s.051-.044.051-.044h.006s.004.003.004.003v.004s-.1.149-.1.149l-.043.216.043.216.099.149v.006s-.004.003-.004.003h-.004s-.049-.043-.049-.043l-.005.006-.005.002h-.003s-.056-.055-.056-.055l-.193-.037-.183.073-.008.009h-.004s-.051.044-.051.044h-.006s-.004-.003-.004-.003v-.004s.1-.149.1-.149l.043-.216-.043-.216-.099-.149v-.006s.004-.003.004-.003h.004Z"/>
      <path class="cls-1" d="M180.572,122.198l.049.041.005-.006.005-.002h.003s.056.055.056.055l.193.037.183-.073.008-.009h.004s.051-.044.051-.044h.006s.004.003.004.003v.004s-.1.149-.1.149l-.043.216.043.216.099.149v.006s-.004.003-.004.003h-.004s-.049-.043-.049-.043l-.005.006-.005.002h-.003s-.056-.055-.056-.055l-.193-.037-.183.073-.008.009h-.004s-.051.044-.051.044h-.006s-.004-.003-.004-.003v-.004s.1-.149.1-.149l.043-.216-.043-.216-.099-.149v-.006s.004-.003.004-.003h.004Z"/>
      <path class="cls-1" d="M186.241,122.198l.049.041.005-.006.005-.002h.003s.056.055.056.055l.193.037.183-.073.008-.009h.004s.051-.044.051-.044h.006s.004.003.004.003v.004s-.1.149-.1.149l-.043.216.043.216.099.149v.006s-.004.003-.004.003h-.004s-.049-.043-.049-.043l-.005.006-.005.002h-.003s-.056-.055-.056-.055l-.193-.037-.183.073-.008.009h-.004s-.051.044-.051.044h-.006s-.004-.003-.004-.003v-.004s.1-.149.1-.149l.043-.216-.043-.216-.099-.149v-.006s.004-.003.004-.003h.004Z"/>
      <path class="cls-1" d="M96.95,122.198l.049.041.005-.006.005-.002h.003s.056.055.056.055l.193.037.183-.073.008-.009h.004s.051-.044.051-.044h.006s.004.003.004.003v.004s-.1.149-.1.149l-.043.216.043.216.099.149v.006s-.004.003-.004.003h-.004s-.049-.043-.049-.043l-.005.006-.005.002h-.003s-.056-.055-.056-.055l-.193-.037-.183.073-.008.009h-.004s-.051.044-.051.044h-.006s-.004-.003-.004-.003v-.004s.1-.149.1-.149l.043-.216-.043-.216-.099-.149v-.006s.004-.003.004-.003h.004Z"/>
      <path class="cls-1" d="M122.462,122.198l.049.041.005-.006.005-.002h.003s.056.055.056.055l.193.037.183-.073.008-.009h.004s.051-.044.051-.044h.006s.004.003.004.003v.004s-.1.149-.1.149l-.043.216.043.216.099.149v.006s-.004.003-.004.003h-.004s-.049-.043-.049-.043l-.005.006-.005.002h-.003s-.056-.055-.056-.055l-.193-.037-.183.073-.008.009h-.004s-.051.044-.051.044h-.006s-.004-.003-.004-.003v-.004s.1-.149.1-.149l.043-.216-.043-.216-.099-.149v-.006s.004-.003.004-.003h.004Z"/>
      <path class="cls-1" d="M179.155,122.198l.049.041.005-.006.005-.002h.003s.056.055.056.055l.193.037.183-.073.008-.009h.004s.051-.044.051-.044h.006s.004.003.004.003v.004s-.1.149-.1.149l-.043.216.043.216.099.149v.006s-.004.003-.004.003h-.004s-.049-.043-.049-.043l-.005.006-.005.002h-.003s-.056-.055-.056-.055l-.193-.037-.183.073-.008.009h-.004s-.051.044-.051.044h-.006s-.004-.003-.004-.003v-.004s.1-.149.1-.149l.043-.216-.043-.216-.099-.149v-.006s.004-.003.004-.003h.004Z"/>
      <path class="cls-1" d="M94.115,122.198l.049.041.005-.006.005-.002h.003s.056.055.056.055l.193.037.183-.073.008-.009h.004s.051-.044.051-.044h.006s.004.003.004.003v.004s-.1.149-.1.149l-.043.216.043.216.099.149v.006s-.004.003-.004.003h-.004s-.049-.043-.049-.043l-.005.006-.005.002h-.003s-.056-.055-.056-.055l-.193-.037-.183.073-.008.009h-.004s-.051.044-.051.044h-.006s-.004-.003-.004-.003v-.004s.1-.149.1-.149l.043-.216-.043-.216-.099-.149v-.006s.004-.003.004-.003h.004Z"/>
      <path class="cls-1" d="M157.895,122.198l.049.041.005-.006.005-.002h.003s.056.055.056.055l.193.037.183-.073.008-.009h.004s.051-.044.051-.044h.006s.004.003.004.003v.004s-.1.149-.1.149l-.043.216.043.216.099.149v.006s-.004.003-.004.003h-.004s-.049-.043-.049-.043l-.005.006-.005.002h-.003s-.056-.055-.056-.055l-.193-.037-.183.073-.008.009h-.004s-.051.044-.051.044h-.006s-.004-.003-.004-.003v-.004s.1-.149.1-.149l.043-.216-.043-.216-.099-.149v-.006s.004-.003.004-.003h.004Z"/>
      <path class="cls-1" d="M156.477,122.198l.049.041.005-.006.005-.002h.003s.056.055.056.055l.193.037.183-.073.008-.009h.004s.051-.044.051-.044h.006s.004.003.004.003v.004s-.1.149-.1.149l-.043.216.043.216.099.149v.006s-.004.003-.004.003h-.004s-.049-.043-.049-.043l-.005.006-.005.002h-.003s-.056-.055-.056-.055l-.193-.037-.183.073-.008.009h-.004s-.051.044-.051.044h-.006s-.004-.003-.004-.003v-.004s.1-.149.1-.149l.043-.216-.043-.216-.099-.149v-.006s.004-.003.004-.003h.004Z"/>
      <path class="cls-1" d="M125.296,122.198l.049.041.005-.006.005-.002h.003s.056.055.056.055l.193.037.183-.073.008-.009h.004s.051-.044.051-.044h.006s.004.003.004.003v.004s-.1.149-.1.149l-.043.216.043.216.099.149v.006s-.004.003-.004.003h-.004s-.049-.043-.049-.043l-.005.006-.005.002h-.003s-.056-.055-.056-.055l-.193-.037-.183.073-.008.009h-.004s-.051.044-.051.044h-.006s-.004-.003-.004-.003v-.004s.1-.149.1-.149l.043-.216-.043-.216-.099-.149v-.006s.004-.003.004-.003h.004Z"/>
      <path class="cls-1" d="M155.06,122.198l.049.041.005-.006.005-.002h.003s.056.055.056.055l.193.037.183-.073.008-.009h.004s.051-.044.051-.044h.006s.004.003.004.003v.004s-.1.149-.1.149l-.043.216.043.216.099.149v.006s-.004.003-.004.003h-.004s-.049-.043-.049-.043l-.005.006-.005.002h-.003s-.056-.055-.056-.055l-.193-.037-.183.073-.008.009h-.004s-.051.044-.051.044h-.006s-.004-.003-.004-.003v-.004s.1-.149.1-.149l.043-.216-.043-.216-.099-.149v-.006s.004-.003.004-.003h.004Z"/>
      <path class="cls-1" d="M153.643,122.198l.049.041.005-.006.005-.002h.003s.056.055.056.055l.193.037.183-.073.008-.009h.004s.051-.044.051-.044h.006s.004.003.004.003v.004s-.1.149-.1.149l-.043.216.043.216.099.149v.006s-.004.003-.004.003h-.004s-.049-.043-.049-.043l-.005.006-.005.002h-.003s-.056-.055-.056-.055l-.193-.037-.183.073-.008.009h-.004s-.051.044-.051.044h-.006s-.004-.003-.004-.003v-.004s.1-.149.1-.149l.043-.216-.043-.216-.099-.149v-.006s.004-.003.004-.003h.004Z"/>
      <path class="cls-1" d="M126.714,122.198l.049.041.005-.006.005-.002h.003s.056.055.056.055l.193.037.183-.073.008-.009h.004s.051-.044.051-.044h.006s.004.003.004.003v.004s-.1.149-.1.149l-.043.216.043.216.099.149v.006s-.004.003-.004.003h-.004s-.049-.043-.049-.043l-.005.006-.005.002h-.003s-.056-.055-.056-.055l-.193-.037-.183.073-.008.009h-.004s-.051.044-.051.044h-.006s-.004-.003-.004-.003v-.004s.1-.149.1-.149l.043-.216-.043-.216-.099-.149v-.006s.004-.003.004-.003h.004Z"/>
      <path class="cls-1" d="M152.225,122.198l.049.041.005-.006.005-.002h.003s.056.055.056.055l.193.037.183-.073.008-.009h.004s.051-.044.051-.044h.006s.004.003.004.003v.004s-.1.149-.1.149l-.043.216.043.216.099.149v.006s-.004.003-.004.003h-.004s-.049-.043-.049-.043l-.005.006-.005.002h-.003s-.056-.055-.056-.055l-.193-.037-.183.073-.008.009h-.004s-.051.044-.051.044h-.006s-.004-.003-.004-.003v-.004s.1-.149.1-.149l.043-.216-.043-.216-.099-.149v-.006s.004-.003.004-.003h.004Z"/>
    </g>
    <g>
      <path class="cls-2" d="M101.211,17.901h3.6"/>
      <path class="cls-2" d="M72.411,53.901h-3.6"/>
      <path class="cls-2" d="M104.811,53.901h-3.6"/>
      <path class="cls-2" d="M68.811,17.901h3.6"/>
      <path class="cls-2" d="M68.811,53.901v-3.6"/>
      <path class="cls-2" d="M104.811,17.901v3.6"/>
      <path class="cls-2" d="M68.811,21.501v-3.6"/>
      <path class="cls-2" d="M104.811,50.301v3.6"/>
      <path class="cls-2" d="M158.811,107.901h-3.6"/>
      <path class="cls-2" d="M158.811,71.901v3.6"/>
      <path class="cls-2" d="M155.211,71.901h3.6"/>
      <path class="cls-2" d="M126.411,107.901h-3.6"/>
      <path class="cls-2" d="M158.811,104.301v3.6"/>
      <path class="cls-2" d="M122.811,75.501v-3.6"/>
      <path class="cls-2" d="M122.811,107.901v-3.6"/>
      <path class="cls-2" d="M122.811,71.901h3.6"/>
      <path class="cls-2" d="M14.811,53.901v-3.6"/>
      <path class="cls-2" d="M47.211,17.901h3.6"/>
      <path class="cls-2" d="M50.811,17.901v3.6"/>
      <path class="cls-2" d="M50.811,53.901h-3.6"/>
      <path class="cls-2" d="M18.411,53.901h-3.6"/>
      <path class="cls-2" d="M50.811,50.301v3.6"/>
      <path class="cls-2" d="M14.811,17.901h3.6"/>
      <path class="cls-2" d="M14.811,21.501v-3.6"/>
      <path class="cls-2" d="M202.677,122.57h.709"/>
      <path class="cls-2" d="M202.677,139.578v-17.008"/>
      <path class="cls-2" d="M212.598,139.578v-17.008"/>
      <path class="cls-2" d="M212.598,139.578h-.709"/>
      <path class="cls-2" d="M212.598,122.57h-.709"/>
      <path class="cls-2" d="M202.677,139.578h.709"/>
      <path class="cls-2" d="M176.811,71.901h3.6"/>
      <path class="cls-2" d="M176.811,107.901v-3.6"/>
      <path class="cls-2" d="M176.811,75.501v-3.6"/>
      <path class="cls-2" d="M212.811,107.901h-3.6"/>
      <path class="cls-2" d="M209.211,71.901h3.6"/>
      <path class="cls-2" d="M180.411,107.901h-3.6"/>
      <path class="cls-2" d="M212.811,104.301v3.6"/>
      <path class="cls-2" d="M212.811,71.901v3.6"/>
      <path class="cls-2" d="M68.811,107.901v-3.6"/>
      <path class="cls-2" d="M68.811,71.901h3.6"/>
      <path class="cls-2" d="M104.811,107.901h-3.6"/>
      <path class="cls-2" d="M101.211,71.901h3.6"/>
      <path class="cls-2" d="M68.811,75.501v-3.6"/>
      <path class="cls-2" d="M104.811,104.301v3.6"/>
      <path class="cls-2" d="M104.811,71.901v3.6"/>
      <path class="cls-2" d="M72.411,107.901h-3.6"/>
      <path class="cls-2" d="M122.811,53.901v-3.6"/>
      <path class="cls-2" d="M122.811,17.901h3.6"/>
      <path class="cls-2" d="M158.811,17.901v3.6"/>
      <path class="cls-2" d="M158.811,53.901h-3.6"/>
      <path class="cls-2" d="M158.811,50.301v3.6"/>
      <path class="cls-2" d="M126.411,53.901h-3.6"/>
      <path class="cls-2" d="M122.811,21.501v-3.6"/>
      <path class="cls-2" d="M155.211,17.901h3.6"/>
      <path class="cls-2" d="M180.411,53.901h-3.6"/>
      <path class="cls-2" d="M212.811,17.901v3.6"/>
      <path class="cls-2" d="M209.211,17.901h3.6"/>
      <path class="cls-2" d="M176.811,53.901v-3.6"/>
      <path class="cls-2" d="M176.811,17.901h3.6"/>
      <path class="cls-2" d="M176.811,21.501v-3.6"/>
      <path class="cls-2" d="M212.811,50.301v3.6"/>
      <path class="cls-2" d="M212.811,53.901h-3.6"/>
      <path class="cls-2" d="M263.197,108.454h3.6"/>
      <path class="cls-2" d="M230.797,144.454v-3.6"/>
      <path class="cls-2" d="M230.797,108.454h3.6"/>
      <path class="cls-2" d="M266.797,144.454h-3.6"/>
      <path class="cls-2" d="M266.797,140.854v3.6"/>
      <path class="cls-2" d="M230.797,112.054v-3.6"/>
      <path class="cls-2" d="M266.797,108.454v3.6"/>
      <path class="cls-2" d="M234.397,144.454h-3.6"/>
      <path class="cls-2" d="M47.211,71.901h3.6"/>
      <path class="cls-2" d="M18.411,107.901h-3.6"/>
      <path class="cls-2" d="M50.811,107.901h-3.6"/>
      <path class="cls-2" d="M14.811,107.901v-3.6"/>
      <path class="cls-2" d="M50.811,104.301v3.6"/>
      <path class="cls-2" d="M14.811,75.501v-3.6"/>
      <path class="cls-2" d="M50.811,71.901v3.6"/>
      <path class="cls-2" d="M14.811,71.901h3.6"/>
      <circle class="cls-2" cx="270.387" cy="14.661" r="2.16"/>
      <circle class="cls-2" cx="270.387" cy="21.861" r="2.16"/>
      <circle class="cls-2" cx="270.387" cy="29.061" r="2.16"/>
      <circle class="cls-2" cx="270.387" cy="36.261" r="2.16"/>
      <circle class="cls-2" cx="270.387" cy="43.461" r="2.16"/>
      <circle class="cls-2" cx="270.387" cy="50.661" r="2.16"/>
      <circle class="cls-2" cx="270.387" cy="57.861" r="2.16"/>
      <circle class="cls-2" cx="270.387" cy="65.061" r="2.16"/>
      <circle class="cls-2" cx="270.387" cy="72.261" r="2.16"/>
      <circle class="cls-2" cx="270.387" cy="79.461" r="2.16"/>
      <circle class="cls-2" cx="270.387" cy="86.661" r="2.16"/>
      <circle class="cls-2" cx="270.387" cy="93.861" r="2.16"/>
      <circle class="cls-2" cx="227.243" cy="93.861" r="2.16"/>
      <circle class="cls-2" cx="227.243" cy="86.661" r="2.16"/>
      <circle class="cls-2" cx="227.243" cy="79.461" r="2.16"/>
      <circle class="cls-2" cx="227.243" cy="72.261" r="2.16"/>
      <circle class="cls-2" cx="227.243" cy="65.061" r="2.16"/>
      <circle class="cls-2" cx="227.243" cy="57.861" r="2.16"/>
      <circle class="cls-2" cx="227.243" cy="50.661" r="2.16"/>
      <circle class="cls-2" cx="227.243" cy="43.461" r="2.16"/>
      <circle class="cls-2" cx="227.243" cy="36.261" r="2.16"/>
      <circle class="cls-2" cx="227.243" cy="29.061" r="2.16"/>
      <circle class="cls-2" cx="227.243" cy="21.861" r="2.16"/>
      <circle class="cls-2" cx="227.243" cy="14.661" r="2.16"/>
      <circle class="cls-2" cx="207.638" cy="121.861" r="2.835"/>
      <circle class="cls-2" cx="207.638" cy="140.287" r="2.835"/>
    </g>
    <g>
      <path class="cls-2" d="M259.469,3.827h14.57"/>
      <path class="cls-2" d="M238.181.142h21.26"/>
      <path class="cls-2" d="M238.181,3.827h21.26"/>
      <path class="cls-2" d="M223.583,3.827h14.598"/>
      <path class="cls-2" d="M259.441.142v3.685"/>
      <path class="cls-2" d="M274.039,97.512h-50.457"/>
      <path class="cls-2" d="M274.039,3.827v93.685"/>
      <path class="cls-2" d="M238.181.142v3.688"/>
      <path class="cls-2" d="M223.583,97.512V3.827"/>
    </g>
    <g>
      <path class="cls-2" d="M275.811,165.09h-88.016"/>
      <path class="cls-2" d="M69.024,148.082h9.921"/>
      <path class="cls-2" d="M159.449,122.57h18.709"/>
      <path class="cls-2" d="M.142,182.523c2.214,2.214,3.455,3.455,5.669,5.669"/>
      <path class="cls-2" d="M59.811,284.428h216"/>
      <path class="cls-2" d="M8.331,171.293h4.638"/>
      <path class="cls-2" d="M102.756,122.57h18.709"/>
      <path class="cls-2" d="M78.945,148.082v17.008"/>
      <path class="cls-2" d="M275.811,3.232l5.509,5.509"/>
      <path class="cls-2" d="M5.811,188.192h54"/>
      <path class="cls-2" d="M268.654,217.602h-39.685"/>
      <path class="cls-2" d="M57.291,151.091h-4.638"/>
      <path class="cls-2" d="M120.968,231.917h39.685"/>
      <path class="cls-2" d="M.142,134.192v48.331"/>
      <path class="cls-2" d="M214.654,231.917v39.685"/>
      <path class="cls-2" d="M106.654,177.917v39.685"/>
      <path class="cls-2" d="M52.654,151.091v-9.741"/>
      <path class="cls-2" d="M93.118,122.57H5.811"/>
      <path class="cls-2" d="M228.968,177.917h39.685"/>
      <path class="cls-2" d="M214.654,177.917v39.685"/>
      <path class="cls-2" d="M268.654,231.917v39.685"/>
      <path class="cls-2" d="M214.654,217.602h-39.685"/>
      <path class="cls-2" d="M228.968,217.602v-39.685"/>
      <path class="cls-2" d="M66.968,271.602v-39.685"/>
      <path class="cls-2" d="M160.654,271.602h-39.685"/>
      <path class="cls-2" d="M5.811,128.523c-2.214,2.214-3.455,3.455-5.669,5.669"/>
      <path class="cls-2" d="M66.968,177.917h39.685"/>
      <path class="cls-2" d="M174.968,271.602v-39.685"/>
      <path class="cls-2" d="M106.654,271.602h-39.685"/>
      <path class="cls-2" d="M131.102,122.57h18.709"/>
      <path class="cls-2" d="M73.337,128.523H5.811"/>
      <path class="cls-2" d="M59.811,188.192v96.236"/>
      <path class="cls-2" d="M228.968,231.917h39.685"/>
      <path class="cls-2" d="M12.969,181.035h39.685"/>
      <path class="cls-2" d="M52.654,141.35H12.969"/>
      <path class="cls-2" d="M274.039,3.232h1.772"/>
      <path class="cls-2" d="M214.654,271.602h-39.685"/>
      <path class="cls-2" d="M268.654,177.917v39.685"/>
      <path class="cls-2" d="M228.968,271.602v-39.685"/>
      <path class="cls-2" d="M160.654,177.917v39.685"/>
      <path class="cls-2" d="M281.48,153.468c-2.214,2.214-3.455,3.455-5.669,5.669"/>
      <path class="cls-2" d="M121.465,165.09h-18.709"/>
      <path class="cls-2" d="M281.48,278.759v-108"/>
      <path class="cls-2" d="M106.654,217.602h-39.685"/>
      <path class="cls-2" d="M66.968,217.602v-39.685"/>
      <path class="cls-2" d="M160.654,231.917v39.685"/>
      <path class="cls-2" d="M12.969,151.091h-4.638"/>
      <path class="cls-2" d="M106.654,231.917v39.685"/>
      <path class="cls-2" d="M57.291,171.293v-20.203"/>
      <path class="cls-2" d="M66.968,231.917h39.685"/>
      <path class="cls-2" d="M281.32,8.741v54.16"/>
      <path class="cls-2" d="M93.118,165.09h-6.661"/>
      <path class="cls-2" d="M281.32,62.901l-5.509,5.509"/>
      <path class="cls-2" d="M52.654,171.293h4.638"/>
      <path class="cls-2" d="M120.968,217.602v-39.685"/>
      <path class="cls-2" d="M5.811,3.232h268.228"/>
      <path class="cls-2" d="M12.969,141.35v9.741"/>
      <path class="cls-2" d="M178.157,165.09h-18.709"/>
      <path class="cls-2" d="M174.968,217.602v-39.685"/>
      <path class="cls-2" d="M275.811,99.468c2.214,2.214,3.455,3.455,5.669,5.669"/>
      <path class="cls-2" d="M268.654,271.602h-39.685"/>
      <path class="cls-2" d="M5.811,122.57c-2.214-2.214-3.455-3.455-5.669-5.669"/>
      <path class="cls-2" d="M160.654,217.602h-39.685"/>
      <path class="cls-2" d="M174.968,177.917h39.685"/>
      <path class="cls-2" d="M.142,116.901V8.901"/>
      <path class="cls-2" d="M.142,8.901c2.214-2.214,3.455-3.455,5.669-5.669"/>
      <path class="cls-2" d="M120.968,177.917h39.685"/>
      <path class="cls-2" d="M195.165,122.57h-7.37"/>
      <path class="cls-2" d="M12.969,171.293v9.741"/>
      <path class="cls-2" d="M275.811,68.41v31.057"/>
      <path class="cls-2" d="M120.968,271.602v-39.685"/>
      <path class="cls-2" d="M275.811,284.428c2.214-2.214,3.455-3.455,5.669-5.669"/>
      <path class="cls-2" d="M69.024,165.09v-17.008"/>
      <path class="cls-2" d="M174.968,231.917h39.685"/>
      <path class="cls-2" d="M149.811,165.09h-18.709"/>
      <path class="cls-2" d="M52.654,181.035v-9.741"/>
      <path class="cls-2" d="M86.457,165.09l-13.12-36.567"/>
      <path class="cls-2" d="M281.48,105.137v48.331"/>
      <path class="cls-2" d="M275.811,159.137h-67.526"/>
      <path class="cls-2" d="M78.945,165.09h-9.921"/>
      <path class="cls-2" d="M208.285,159.137l-13.12-36.567"/>
      <path class="cls-2" d="M8.331,151.091v20.203"/>
      <path class="cls-2" d="M281.48,170.759c-2.214-2.214-3.455-3.455-5.669-5.669"/>
    </g>
    <g>
      <path class="cls-2" d="M165.402,229.011h4.819"/>
      <path class="cls-2" d="M170.22,229.011v8.504"/>
      <path class="cls-2" d="M170.22,237.515h-4.819"/>
      <path class="cls-2" d="M165.402,237.515v-8.504"/>
      <path class="cls-2" d="M165.402,212.003h4.819"/>
      <path class="cls-2" d="M170.22,212.003v8.504"/>
      <path class="cls-2" d="M170.22,220.507h-4.819"/>
      <path class="cls-2" d="M165.402,220.507v-8.504"/>
      <path class="cls-2" d="M145.984,156.586h3.827"/>
      <path class="cls-2" d="M163.276,139.578h-3.827"/>
      <path class="cls-2" d="M163.276,148.082h-3.827"/>
      <path class="cls-2" d="M163.276,131.074h-3.827"/>
      <path class="cls-2" d="M145.984,131.074h3.827"/>
      <path class="cls-2" d="M163.276,156.586l.709-.709"/>
      <path class="cls-2" d="M149.811,165.09v-8.504"/>
      <path class="cls-2" d="M163.984,138.869v-7.087"/>
      <path class="cls-2" d="M159.449,139.578v8.504"/>
      <path class="cls-2" d="M163.984,131.783l-.709-.709"/>
      <path class="cls-2" d="M163.276,148.082l.709.709"/>
      <path class="cls-2" d="M149.811,131.074v-8.504"/>
      <path class="cls-2" d="M163.984,155.877v-7.087"/>
      <path class="cls-2" d="M145.984,148.082h3.827"/>
      <path class="cls-2" d="M159.449,156.586v8.504"/>
      <path class="cls-2" d="M159.449,122.57v8.504"/>
      <path class="cls-2" d="M145.984,139.578h3.827"/>
      <path class="cls-2" d="M145.984,139.578l-.709-.709"/>
      <path class="cls-2" d="M145.276,155.877l.709.709"/>
      <path class="cls-2" d="M145.276,131.783v7.087"/>
      <path class="cls-2" d="M145.984,131.074l-.709.709"/>
      <path class="cls-2" d="M145.984,148.082l-.709.709"/>
      <path class="cls-2" d="M163.276,156.586h-3.827"/>
      <path class="cls-2" d="M145.276,148.791v7.087"/>
      <path class="cls-2" d="M163.276,139.578l.709-.709"/>
      <path class="cls-2" d="M149.811,148.082v-8.504"/>
      <path class="cls-2" d="M216.043,130.706h4.819"/>
      <path class="cls-2" d="M220.861,130.706v8.504"/>
      <path class="cls-2" d="M220.861,139.209h-4.819"/>
      <path class="cls-2" d="M216.043,139.209v-8.504"/>
      <path class="cls-2" d="M216.043,113.698h4.819"/>
      <path class="cls-2" d="M220.861,113.698v8.504"/>
      <path class="cls-2" d="M220.861,122.202h-4.819"/>
      <path class="cls-2" d="M216.043,122.202v-8.504"/>
      <path class="cls-2" d="M57.402,50.145h4.819"/>
      <path class="cls-2" d="M62.22,50.145v8.504"/>
      <path class="cls-2" d="M62.22,58.649h-4.819"/>
      <path class="cls-2" d="M57.402,58.649v-8.504"/>
      <path class="cls-2" d="M57.402,67.153h4.819"/>
      <path class="cls-2" d="M62.22,67.153v8.504"/>
      <path class="cls-2" d="M62.22,75.657h-4.819"/>
      <path class="cls-2" d="M57.402,75.657v-8.504"/>
      <path class="cls-2" d="M219.402,212.003h4.819"/>
      <path class="cls-2" d="M224.22,212.003v8.504"/>
      <path class="cls-2" d="M224.22,220.507h-4.819"/>
      <path class="cls-2" d="M219.402,220.507v-8.504"/>
      <path class="cls-2" d="M219.402,229.011h4.819"/>
      <path class="cls-2" d="M224.22,229.011v8.504"/>
      <path class="cls-2" d="M224.22,237.515h-4.819"/>
      <path class="cls-2" d="M219.402,237.515v-8.504"/>
      <path class="cls-2" d="M187.795,139.578v8.504"/>
      <path class="cls-2" d="M178.157,148.082v-8.504"/>
      <path class="cls-2" d="M174.331,139.578l-.709-.709"/>
      <path class="cls-2" d="M191.622,131.074h-3.827"/>
      <path class="cls-2" d="M174.331,148.082l-.709.709"/>
      <path class="cls-2" d="M173.622,155.877l.709.709"/>
      <path class="cls-2" d="M191.622,139.578l.709-.709"/>
      <path class="cls-2" d="M191.622,156.586h-3.827"/>
      <path class="cls-2" d="M173.622,148.791v7.087"/>
      <path class="cls-2" d="M191.622,148.082l.709.709"/>
      <path class="cls-2" d="M173.622,131.783v7.087"/>
      <path class="cls-2" d="M192.331,138.869v-7.087"/>
      <path class="cls-2" d="M174.331,131.074l-.709.709"/>
      <path class="cls-2" d="M174.331,156.586h3.827"/>
      <path class="cls-2" d="M191.622,148.082h-3.827"/>
      <path class="cls-2" d="M191.622,156.586l.709-.709"/>
      <path class="cls-2" d="M174.331,131.074h3.827"/>
      <path class="cls-2" d="M192.331,155.877v-7.087"/>
      <path class="cls-2" d="M192.331,131.783l-.709-.709"/>
      <path class="cls-2" d="M187.795,156.586v8.504"/>
      <path class="cls-2" d="M187.795,122.57v8.504"/>
      <path class="cls-2" d="M174.331,148.082h3.827"/>
      <path class="cls-2" d="M191.622,139.578h-3.827"/>
      <path class="cls-2" d="M178.157,165.09v-8.504"/>
      <path class="cls-2" d="M174.331,139.578h3.827"/>
      <path class="cls-2" d="M178.157,131.074v-8.504"/>
      <path class="cls-2" d="M60.748,165.444h4.819"/>
      <path class="cls-2" d="M65.567,165.444v8.504"/>
      <path class="cls-2" d="M65.567,173.948h-4.819"/>
      <path class="cls-2" d="M60.748,173.948v-8.504"/>
      <path class="cls-2" d="M60.748,148.436h4.819"/>
      <path class="cls-2" d="M65.567,148.436v8.504"/>
      <path class="cls-2" d="M65.567,156.94h-4.819"/>
      <path class="cls-2" d="M60.748,156.94v-8.504"/>
      <path class="cls-2" d="M107.291,155.877v-7.087"/>
      <path class="cls-2" d="M106.583,148.082l.709.709"/>
      <path class="cls-2" d="M93.118,131.074v-8.504"/>
      <path class="cls-2" d="M106.583,156.586h-3.827"/>
      <path class="cls-2" d="M102.756,156.586v8.504"/>
      <path class="cls-2" d="M102.756,139.578v8.504"/>
      <path class="cls-2" d="M89.291,148.082l-.709.709"/>
      <path class="cls-2" d="M89.291,148.082h3.827"/>
      <path class="cls-2" d="M89.291,156.586h3.827"/>
      <path class="cls-2" d="M88.583,148.791v7.087"/>
      <path class="cls-2" d="M89.291,139.578l-.709-.709"/>
      <path class="cls-2" d="M106.583,139.578l.709-.709"/>
      <path class="cls-2" d="M106.583,148.082h-3.827"/>
      <path class="cls-2" d="M88.583,155.877l.709.709"/>
      <path class="cls-2" d="M107.291,131.783l-.709-.709"/>
      <path class="cls-2" d="M88.583,131.783v7.087"/>
      <path class="cls-2" d="M89.291,139.578h3.827"/>
      <path class="cls-2" d="M89.291,131.074l-.709.709"/>
      <path class="cls-2" d="M93.118,148.082v-8.504"/>
      <path class="cls-2" d="M102.756,122.57v8.504"/>
      <path class="cls-2" d="M106.583,131.074h-3.827"/>
      <path class="cls-2" d="M106.583,156.586l.709-.709"/>
      <path class="cls-2" d="M93.118,165.09v-8.504"/>
      <path class="cls-2" d="M107.291,138.869v-7.087"/>
      <path class="cls-2" d="M89.291,131.074h3.827"/>
      <path class="cls-2" d="M106.583,139.578h-3.827"/>
      <path class="cls-2" d="M131.102,122.57v8.504"/>
      <path class="cls-2" d="M135.638,155.877v-7.087"/>
      <path class="cls-2" d="M117.638,156.586h3.827"/>
      <path class="cls-2" d="M121.465,131.074v-8.504"/>
      <path class="cls-2" d="M117.638,131.074h3.827"/>
      <path class="cls-2" d="M121.465,165.09v-8.504"/>
      <path class="cls-2" d="M117.638,139.578l-.709-.709"/>
      <path class="cls-2" d="M116.929,131.783v7.087"/>
      <path class="cls-2" d="M134.929,156.586l.709-.709"/>
      <path class="cls-2" d="M117.638,148.082l-.709.709"/>
      <path class="cls-2" d="M116.929,148.791v7.087"/>
      <path class="cls-2" d="M121.465,148.082v-8.504"/>
      <path class="cls-2" d="M134.929,148.082l.709.709"/>
      <path class="cls-2" d="M134.929,156.586h-3.827"/>
      <path class="cls-2" d="M134.929,148.082h-3.827"/>
      <path class="cls-2" d="M117.638,131.074l-.709.709"/>
      <path class="cls-2" d="M134.929,131.074h-3.827"/>
      <path class="cls-2" d="M135.638,138.869v-7.087"/>
      <path class="cls-2" d="M134.929,139.578h-3.827"/>
      <path class="cls-2" d="M135.638,131.783l-.709-.709"/>
      <path class="cls-2" d="M131.102,156.586v8.504"/>
      <path class="cls-2" d="M116.929,155.877l.709.709"/>
      <path class="cls-2" d="M117.638,148.082h3.827"/>
      <path class="cls-2" d="M131.102,139.578v8.504"/>
      <path class="cls-2" d="M117.638,139.578h3.827"/>
      <path class="cls-2" d="M134.929,139.578l.709-.709"/>
      <path class="cls-2" d="M165.402,67.153h4.819"/>
      <path class="cls-2" d="M170.22,67.153v8.504"/>
      <path class="cls-2" d="M170.22,75.657h-4.819"/>
      <path class="cls-2" d="M165.402,75.657v-8.504"/>
      <path class="cls-2" d="M165.402,50.145h4.819"/>
      <path class="cls-2" d="M170.22,50.145v8.504"/>
      <path class="cls-2" d="M170.22,58.649h-4.819"/>
      <path class="cls-2" d="M165.402,58.649v-8.504"/>
      <path class="cls-2" d="M111.402,67.153h4.819"/>
      <path class="cls-2" d="M116.22,67.153v8.504"/>
      <path class="cls-2" d="M116.22,75.657h-4.819"/>
      <path class="cls-2" d="M111.402,75.657v-8.504"/>
      <path class="cls-2" d="M111.402,50.145h4.819"/>
      <path class="cls-2" d="M116.22,50.145v8.504"/>
      <path class="cls-2" d="M116.22,58.649h-4.819"/>
      <path class="cls-2" d="M111.402,58.649v-8.504"/>
      <path class="cls-2" d="M111.402,229.011h4.819"/>
      <path class="cls-2" d="M116.22,229.011v8.504"/>
      <path class="cls-2" d="M116.22,237.515h-4.819"/>
      <path class="cls-2" d="M111.402,237.515v-8.504"/>
      <path class="cls-2" d="M111.402,212.003h4.819"/>
      <path class="cls-2" d="M116.22,212.003v8.504"/>
      <path class="cls-2" d="M116.22,220.507h-4.819"/>
      <path class="cls-2" d="M111.402,220.507v-8.504"/>
    </g>
  </g>
</svg>